<svg width="151" height="140" viewBox="0 0 151 140" fill="none" xmlns="http://www.w3.org/2000/svg">
<path d="M7.00002 99.6106C15.0531 128.726 104.876 163.416 125.938 118.195C140.248 87.531 166.142 59.4071 136.593 27.6283C121.788 12.0796 99.0531 1.42477 77.8053 0.0619414C56.4956 -1.42478 45.4071 16.6018 25.5841 24.6549C-9.47785 38.9646 -0.74334 71.5487 7.00002 99.6106Z" fill="#F0F2FC"/>
<path d="M75.1416 29.6106L67.2124 32.7079L60.4602 37.0442L57.6726 42.8053L55.1947 48.8141L54.0797 53.7699L54.3274 59.9646L56.4336 70.9911L62.0089 77.6194L69.4425 81.4602L75.7611 81.0265L80.0974 81.646L85.6106 78.3009L91.2478 75.4513L93.9115 70L96.823 61.823V57.4867L95.2743 46.646L91.5575 38.2832L85.6726 32.7079L75.1416 29.6106Z" fill="white"/>
<path d="M57.6726 56.8672V52.4071C57.6726 41.5664 66.2832 32.7079 76.8762 32.7079C87.4691 32.7079 96.0797 41.5664 96.0797 52.4071V56.8672H57.6726Z" fill="#8B97EC"/>
<path d="M94.593 86.5398H86.1682V80.4071L86.2921 80.3452C92.8585 76.5045 96.9469 69.4425 96.9469 61.885V57.5487H98.6195C98.7434 57.5487 98.8673 57.4867 99.0531 57.4248L99.1151 57.3629L99.239 57.3009L99.3629 57.177C99.3629 57.177 99.4248 57.1151 99.4248 57.0531L99.5487 56.9292V56.8053C99.5487 56.7434 99.5487 56.7434 99.6107 56.6814C99.6107 56.6195 99.6726 56.5575 99.6726 56.4956V56.4337V56.3717C99.6726 56.3098 99.6726 56.3098 99.6726 56.2478C99.6726 56.1239 99.6726 56.1239 99.6107 56.062C99.6107 56 99.5487 56 99.5487 55.9381L99.4868 55.8761L99.4248 55.8142L99.3629 55.7522C99.177 55.5664 98.4956 54.9469 97.1328 54.1416L96.9469 54.0797V51.1062C96.9469 39.8938 88.1505 30.5398 76.9381 29.8584H76.6284V29.4868C76.6284 28.9292 76.1328 28.4337 75.5753 28.4337C75.0177 28.4337 74.5222 28.9292 74.5222 29.4868V29.8584H74.2124C63 30.5398 54.2036 39.8938 54.2036 51.1062V54.0797L54.0177 54.1416C52.531 55.0089 51.8496 55.6903 51.7877 55.7522L51.7257 55.8142C51.7257 55.8761 51.6638 55.8761 51.6638 55.8761C51.6638 55.8761 51.6018 56 51.5399 56V56.062C51.5399 56.1239 51.5399 56.1239 51.5399 56.1859V56.2478L51.4779 56.3717V56.4956C51.4779 56.5575 51.4779 56.5576 51.4779 56.6195C51.5399 56.9912 51.7257 57.239 52.0354 57.4248L52.1593 57.4868C52.2832 57.5487 52.3452 57.5487 52.4691 57.5487H54.1416V61.885C54.1416 69.4425 58.2301 76.5045 64.7965 80.3452L64.9204 80.4071V86.5398H56.4956C49.9292 86.5398 44.6638 91.8673 44.6638 98.3717V107.973C44.6638 108.531 45.1593 109.027 45.7169 109.027C45.7788 109.027 45.7788 109.027 45.8407 109.027C45.9646 109.089 46.1505 109.15 46.3363 109.15H104.876C105.062 109.15 105.186 109.089 105.372 109.027C105.867 108.965 106.301 108.531 106.301 107.973V98.3717C106.425 91.8053 101.097 86.5398 94.593 86.5398ZM56.4337 51.1682C56.4337 40.3275 65.0443 31.4691 75.6372 31.4691C86.2301 31.4691 94.8408 40.3275 94.8408 51.1682V55.6283H56.4337V51.1682ZM56.4337 61.885V57.5487H94.9027V61.885C94.9027 72.4779 86.2921 81.0885 75.6992 81.0885C65.1062 81.0885 56.4337 72.4779 56.4337 61.885ZM84.062 81.4602V86.9115L79.6018 89.1416L76.0089 87.9646H75.9469C75.885 87.9646 75.885 87.9646 75.8231 87.9646C75.6372 87.9027 75.5753 87.9646 75.3894 87.9646C75.3275 87.9646 75.3275 87.9646 75.2655 87.9646L71.6107 89.2036L67.1505 86.9735V81.5222L67.5841 81.708C72.7257 83.8142 78.4248 83.8142 83.5664 81.708L84.062 81.4602ZM56.7434 88.5841H65.9735L71.177 91.1859C71.239 91.1859 71.239 91.1859 71.3629 91.2478C71.4248 91.2478 71.5487 91.3098 71.6726 91.3098C71.7965 91.3098 71.8584 91.3098 71.9204 91.2478L75.6992 90.0089L79.354 91.2478L79.5399 91.3098C79.6018 91.3098 79.7257 91.3098 79.8496 91.3098C79.9735 91.3098 80.0974 91.2478 80.2832 91.1859L85.4868 88.5841H94.7169C100.106 88.5841 104.504 92.9823 104.504 98.3717V106.92H46.9558V98.3717C46.9558 92.9823 51.354 88.5841 56.7434 88.5841Z" fill="#6E7EE8"/>
<path d="M74.2744 48.0088C74.0266 48.0088 73.8408 47.9469 73.6549 47.823C73.4071 47.6371 73.2832 47.3893 73.2213 47.1415C73.1593 46.8938 73.2213 46.584 73.4071 46.3982L76.1947 42.6814H72.8496C72.7257 42.6814 72.6018 42.6814 72.4779 42.6194C72.416 42.6194 72.416 42.5575 72.354 42.5575L72.2301 42.4955L72.1682 42.4336C72.1062 42.3716 72.0443 42.3097 72.0443 42.3097C71.9824 42.2477 71.9823 42.1858 71.9204 42.1858C71.8585 42.1238 71.8585 42.0619 71.8585 42C71.8585 41.938 71.7965 41.8761 71.7965 41.7522V41.6902V41.6283C71.7965 41.5663 71.7965 41.5044 71.8585 41.3805C71.8585 41.3185 71.9204 41.2566 71.9823 41.1946V41.1327V41.0708L76.0089 35.6814C76.1947 35.4336 76.5045 35.3097 76.8762 35.3097C77.1239 35.3097 77.3098 35.3716 77.4956 35.4955C77.7434 35.6814 77.8673 35.9292 77.9293 36.1769C77.9912 36.4247 77.8673 36.7345 77.7434 36.9203L74.9558 40.6371H78.239H78.3629H78.4248C78.4868 40.6371 78.5487 40.6371 78.6107 40.6991C78.6726 40.6991 78.7346 40.761 78.7965 40.823H78.8585H78.9204L78.9823 40.8849C79.0443 40.9469 79.1062 41.0088 79.1062 41.0708C79.1682 41.1327 79.1682 41.1327 79.1682 41.1946C79.1682 41.2566 79.2301 41.3185 79.2301 41.3805C79.2301 41.4424 79.2921 41.5044 79.2921 41.6283V41.6902V41.7522C79.2921 41.8141 79.2921 41.8761 79.2301 42C79.2301 42.0619 79.1682 42.1238 79.1062 42.2477V42.3097V42.3716L75.0797 47.761C74.9558 47.8849 74.6461 48.0088 74.2744 48.0088Z" fill="#F0F2FC"/>
<path d="M84.062 81.4601V86.9115L79.6018 89.1416L76.0089 87.9646H75.947C75.885 87.9646 75.885 87.9646 75.8231 87.9646C75.6372 87.9026 75.5753 87.9646 75.3894 87.9646C75.3275 87.9646 75.3275 87.9646 75.2656 87.9646L71.6107 89.2035L67.1505 86.9734V81.5221L67.5841 81.7079C72.7257 83.8141 78.4248 83.8141 83.5664 81.7079L84.062 81.4601Z" fill="white"/>
<path d="M56.7434 88.584H65.9735L71.177 91.1858C71.2389 91.1858 71.2389 91.1858 71.3628 91.2478C71.4248 91.2478 71.5487 91.3097 71.6726 91.3097C71.7965 91.3097 71.8584 91.3097 71.9204 91.2478L75.6991 90.0088L79.354 91.2478L79.5398 91.3097C79.6018 91.3097 79.7257 91.3097 79.8496 91.3097C79.9734 91.3097 80.0974 91.2478 80.2832 91.1858L85.4867 88.584H94.7168C100.106 88.584 104.504 92.9823 104.504 98.3717V106.92H46.9557V98.3717C46.9557 92.9823 51.354 88.584 56.7434 88.584Z" fill="white"/>
</svg>
