<svg width="146" height="140" viewBox="0 0 146 140" fill="none" xmlns="http://www.w3.org/2000/svg">
<path d="M5.61484 49.9779C5.61484 49.9779 26.5932 22.8294 45.7206 11.1062C64.848 -0.617032 102.609 -10.6126 116.677 22.8294C129.634 53.68 162.953 83.9136 133.953 109.828C104.954 135.743 35.7867 155.734 21.6571 122.785C6.84886 88.2327 -8.57644 70.3393 5.61484 49.9779Z" fill="#EEF6FB"/>
<path d="M67.6863 82.0009C64.6629 85.0242 60.5906 86.6902 56.2715 86.6902C51.9525 86.6902 47.9419 85.0242 44.9185 82.0009C39.6122 76.6946 38.6867 68.2415 42.759 61.948L56.3332 40.7228L69.9075 61.948C73.9798 68.3649 73.0543 76.6329 67.6863 82.0009Z" fill="white"/>
<path d="M57.5673 87.9242C53.2482 87.9242 49.2376 86.2582 46.2142 83.2349C40.9079 77.9286 39.9824 69.4755 44.0547 63.182L57.629 41.9568L71.2032 63.182C75.2755 69.5989 74.4117 77.8669 69.0437 83.2349C65.8969 86.2582 61.8246 87.9242 57.5673 87.9242ZM65.5267 66.9458C65.1565 66.9458 64.848 67.0075 64.5395 67.1309C62.997 67.6862 62.1948 69.4138 62.7502 70.9564C63.7374 73.7329 62.2566 76.818 59.48 77.8052C58.7396 78.052 58.1226 78.6073 57.8141 79.3477C57.4439 80.0881 57.4439 80.8902 57.6907 81.6307C58.1226 82.803 59.2332 83.6051 60.4672 83.6051C60.7757 83.6051 61.1459 83.5434 61.4544 83.42C67.316 81.3221 70.4011 74.8435 68.365 68.9819C67.8714 67.6862 66.7607 66.9458 65.5267 66.9458Z" fill="#77B9E2"/>
<path d="M64.2928 65.7117C63.9226 65.7117 63.6141 65.7734 63.3056 65.8968C61.763 66.4521 60.9609 68.1798 61.5162 69.7223C62.5034 72.4989 61.0226 75.5839 58.2461 76.5711C57.5057 76.8179 56.8886 77.3733 56.5801 78.1137C56.2716 78.8541 56.2099 79.6562 56.4567 80.3966C56.8886 81.5689 57.9993 82.3711 59.2333 82.3711C59.5418 82.3711 59.912 82.3094 60.2205 82.1859C66.0821 80.0881 69.1672 73.6095 67.131 67.7479C66.6374 66.4521 65.5268 65.7117 64.2928 65.7117ZM59.5418 80.3966C58.9865 80.5817 58.3078 80.2732 58.1227 79.7179C57.9376 79.1626 58.2461 78.4839 58.8014 78.2988C62.5652 76.9414 64.5396 72.8074 63.1822 69.0436C62.9971 68.4883 63.2439 67.8096 63.8609 67.6245C64.4162 67.4394 65.0949 67.6862 65.28 68.3032C67.0693 73.2393 64.4779 78.669 59.5418 80.3966Z" fill="#56A8DB"/>
<path d="M71.4501 60.9608L57.2588 38.7483C56.9503 38.2547 56.2099 38.0696 55.7163 38.3781C55.5929 38.4398 55.4695 38.5632 55.3461 38.7483L41.1548 60.9608C36.6506 68.0564 37.6378 77.3733 43.5612 83.2966C50.5951 90.3305 61.9481 90.3305 68.9203 83.2966C74.9671 77.3116 75.9543 68.0564 71.4501 60.9608ZM67.6863 82.0009C64.663 85.0242 60.5907 86.6902 56.2716 86.6902C51.9525 86.6902 47.9419 85.0242 44.9186 82.0009C39.6123 76.6946 38.6868 68.2415 42.759 61.948L56.3333 40.7228L69.9076 61.948C73.9798 68.3649 73.0543 76.6329 67.6863 82.0009Z" fill="#56A8DB"/>
<path d="M88.4179 66.699L88.8498 58.8012H84.0371L85.1477 43.9929H92.4285L90.7625 54.1736H96.0688L88.4179 66.699Z" fill="white"/>
<path d="M118.651 108.1C116.06 108.1 114.764 107.175 113.345 106.064C111.803 104.892 110.075 103.596 106.681 103.596C103.288 103.596 101.56 104.892 100.018 106.064C98.5986 107.175 97.3028 108.1 94.7114 108.1C92.1199 108.1 90.8242 107.175 89.4051 106.064C87.8626 104.892 86.1349 103.596 82.7414 103.596C79.3478 103.596 77.6202 104.892 76.0776 106.064C74.6585 107.175 73.3628 108.1 70.7713 108.1C68.1799 108.1 66.8841 107.175 65.465 106.064C63.9225 104.892 62.1949 103.596 58.8013 103.596C55.4077 103.596 53.6801 104.892 52.1376 106.064C50.7184 107.175 49.4227 108.1 46.8313 108.1C44.2398 108.1 42.9441 107.175 41.525 106.064C39.9824 104.892 38.2548 103.596 34.8612 103.596C34.2442 103.596 33.7506 104.09 33.7506 104.707C33.7506 105.324 34.2442 105.817 34.8612 105.817C37.4527 105.817 38.7484 106.743 40.1675 107.854C41.7101 109.026 43.4377 110.322 46.8313 110.322C50.2248 110.322 51.9525 109.026 53.495 107.854C54.9141 106.743 56.2098 105.817 58.8013 105.817C61.3927 105.817 62.6885 106.743 64.1076 107.854C65.6501 109.026 67.3778 110.322 70.7713 110.322C74.1649 110.322 75.8925 109.026 77.4351 107.854C78.8542 106.743 80.1499 105.817 82.7414 105.817C85.3328 105.817 86.6285 106.743 88.0477 107.854C89.5902 109.026 91.3178 110.322 94.7114 110.322C98.105 110.322 99.8326 109.026 101.375 107.854C102.794 106.743 104.09 105.817 106.681 105.817C109.273 105.817 110.569 106.743 111.988 107.854C113.53 109.026 115.258 110.322 118.651 110.322C119.268 110.322 119.762 109.828 119.762 109.211C119.762 108.594 119.268 108.1 118.651 108.1Z" fill="#56A8DB"/>
<path d="M118.651 96.8709C116.06 96.8709 114.764 95.9454 113.345 94.8347C111.803 93.6624 110.075 92.3667 106.681 92.3667C103.288 92.3667 101.56 93.6624 100.018 94.8347C98.5986 95.9454 97.3028 96.8709 94.7114 96.8709C92.1199 96.8709 90.8242 95.9454 89.4051 94.8347C87.8626 93.6624 86.1349 92.3667 82.7414 92.3667C79.3478 92.3667 77.6202 93.6624 76.0776 94.8347C74.6585 95.9454 73.3628 96.8709 70.7713 96.8709C68.1799 96.8709 66.8841 95.9454 65.465 94.8347C63.9225 93.6624 62.1949 92.3667 58.8013 92.3667C55.4077 92.3667 53.6801 93.6624 52.1376 94.8347C50.7184 95.9454 49.4227 96.8709 46.8313 96.8709C44.2398 96.8709 42.9441 95.9454 41.525 94.8347C39.9824 93.6624 38.2548 92.3667 34.8612 92.3667C34.2442 92.3667 33.7506 92.8603 33.7506 93.4773C33.7506 94.0943 34.2442 94.5879 34.8612 94.5879C37.4527 94.5879 38.7484 95.5135 40.1675 96.6241C41.7101 97.7964 43.4377 99.0921 46.8313 99.0921C50.2248 99.0921 51.9525 97.7964 53.495 96.6241C54.9141 95.5135 56.2098 94.5879 58.8013 94.5879C61.3927 94.5879 62.6885 95.5135 64.1076 96.6241C65.6501 97.7964 67.3778 99.0921 70.7713 99.0921C74.1649 99.0921 75.8925 97.7964 77.4351 96.6241C78.8542 95.5135 80.1499 94.5879 82.7414 94.5879C85.3328 94.5879 86.6285 95.5135 88.0477 96.6241C89.5902 97.7964 91.3178 99.0921 94.7114 99.0921C98.105 99.0921 99.8326 97.7964 101.375 96.6241C102.794 95.5135 104.09 94.5879 106.681 94.5879C109.273 94.5879 110.569 95.5135 111.988 96.6241C113.53 97.7964 115.258 99.0921 118.651 99.0921C119.268 99.0921 119.762 98.5985 119.762 97.9815C119.762 97.3645 119.268 96.8709 118.651 96.8709Z" fill="#56A8DB"/>
<path d="M90.0838 57.9991H85.2711L86.3817 45.227H93.6625L92.6136 53.68H95.6986L89.5285 64.1693L90.0838 57.9991Z" fill="#77B9E2"/>
<path d="M98.3518 52.3843C98.2284 52.3226 98.0433 52.2609 97.9199 52.2609H92.9221L94.4029 43.0674C94.4646 42.6355 94.1561 42.2036 93.7242 42.1419C93.6625 42.1419 93.6625 42.1419 93.6008 42.1419H84.2222C83.7903 42.1419 83.4201 42.4504 83.4201 42.8823L82.0627 59.7267C82.001 60.1587 82.3712 60.5906 82.8031 60.5906H82.8648H86.8754L86.32 70.5862C86.32 70.9564 86.5668 71.3266 86.8754 71.45C87.2456 71.5734 87.6158 71.3883 87.8626 71.0798L98.5986 53.4949C98.8454 53.1864 98.722 52.6311 98.3518 52.3843ZM88.4179 66.699L88.8498 58.8012H83.9754L85.1477 43.9929H92.3668L90.7008 54.1119H96.0071L88.4179 66.699Z" fill="#56A8DB"/>
</svg>
