<svg width="149" height="140" viewBox="0 0 149 140" fill="none" xmlns="http://www.w3.org/2000/svg">
<path d="M13.7934 45.026C13.7934 45.026 36.276 29.2274 44.783 18.8975C53.2899 8.56768 76.9878 -17.5608 107.977 18.2899C138.967 54.1406 163.88 68.7239 137.144 103.967C110.408 139.21 105.547 148.325 47.2135 132.526C-10.5122 116.91 -6.86636 62.6475 13.7934 45.026Z" fill="#FDF6EF"/>
<path d="M116.484 67.5087H83.0641V116.12H116.484V67.5087Z" fill="white"/>
<path d="M83.0641 33.4808H37.4912V116.12H83.0641V33.4808Z" fill="white"/>
<path d="M56.9965 42.1093H48.1249V51.2239H56.9965V42.1093Z" fill="#F0BE83"/>
<path d="M75.4687 42.1093H66.5972V51.2239H75.4687V42.1093Z" fill="#F0BE83"/>
<path d="M56.9965 61.0069H48.1249V70.1215H56.9965V61.0069Z" fill="#F0BE83"/>
<path d="M75.4687 61.0069H66.5972V70.1215H75.4687V61.0069Z" fill="#F0BE83"/>
<path d="M75.4687 79.9044H66.5972V89.019H75.4687V79.9044Z" fill="#F0BE83"/>
<path d="M75.4687 98.802H66.5972V107.917H75.4687V98.802Z" fill="#F0BE83"/>
<path d="M56.9357 79.9044H48.0642V89.019H56.9357V79.9044Z" fill="#F0BE83"/>
<path d="M56.9357 98.802H48.0642V107.917H56.9357V98.802Z" fill="#F0BE83"/>
<path d="M98.0729 78.0208H90.7812V85.3124H98.0729V78.0208Z" fill="#F0BE83"/>
<path d="M111.623 78.0208H104.332V85.3124H111.623V78.0208Z" fill="#F0BE83"/>
<path d="M56.3281 39.0712H46.3628C45.5728 39.0712 45.0867 39.5573 45.0867 40.3472V50.5555C45.0867 51.3455 45.7551 51.8316 46.3628 51.8316H56.2673C57.0572 51.8316 57.5433 51.3455 57.5433 50.5555V40.408C57.6041 39.618 57.0572 39.0712 56.3281 39.0712ZM55.7812 50.0087H46.9096V40.8941H55.7812V50.0087Z" fill="#EDAE65"/>
<path d="M74.7395 39.0712H64.835C64.0451 39.0712 63.559 39.5573 63.559 40.3472V50.5555C63.559 51.3455 64.2274 51.8316 64.835 51.8316H74.7395C75.5294 51.8316 76.0156 51.3455 76.0156 50.5555V40.408C76.0156 39.618 75.5294 39.0712 74.7395 39.0712ZM74.1926 50.0087H65.3211V40.8941H74.1926V50.0087Z" fill="#EDAE65"/>
<path d="M56.3281 57.9687H46.3628C45.5728 57.9687 45.0867 58.4548 45.0867 59.2447V69.4531C45.0867 70.243 45.5728 70.7291 46.3628 70.7291H56.2673C57.0572 70.7291 57.5433 70.243 57.5433 69.4531V59.3055C57.6041 58.5156 57.0572 57.9687 56.3281 57.9687ZM55.7812 68.9062H46.9096V59.7916H55.7812V68.9062Z" fill="#EDAE65"/>
<path d="M74.7395 57.9687H64.835C64.0451 57.9687 63.559 58.4548 63.559 59.2447V69.4531C63.559 70.243 64.0451 70.7291 64.835 70.7291H74.7395C75.5294 70.7291 76.0156 70.243 76.0156 69.4531V59.3055C76.0156 58.5156 75.5294 57.9687 74.7395 57.9687ZM74.1926 68.9062H65.3211V59.7916H74.1926V68.9062Z" fill="#EDAE65"/>
<path d="M74.7395 76.8663H64.835C64.0451 76.8663 63.559 77.3524 63.559 78.1423V88.3506C63.559 89.1406 64.0451 89.6267 64.835 89.6267H74.7395C75.5294 89.6267 76.0156 89.1406 76.0156 88.3506V78.1423C76.0156 77.4132 75.5294 76.8663 74.7395 76.8663ZM74.1926 87.8038H65.3211V78.6892H74.1926V87.8038Z" fill="#EDAE65"/>
<path d="M74.7395 95.7639H64.835C64.0451 95.7639 63.559 96.25 63.559 97.0399V107.248C63.559 108.038 64.0451 108.524 64.835 108.524H74.7395C75.5294 108.524 76.0156 108.038 76.0156 107.248V97.0399C76.0156 96.3107 75.5294 95.7639 74.7395 95.7639ZM74.1926 106.701H65.3211V97.5868H74.1926V106.701Z" fill="#EDAE65"/>
<path d="M56.2066 76.8663H46.302C45.5121 76.8663 45.026 77.3524 45.026 78.1423V88.3506C45.026 89.1406 45.5121 89.6267 46.302 89.6267H56.2066C56.9965 89.6267 57.4826 89.1406 57.4826 88.3506V78.1423C57.5434 77.4132 56.9965 76.8663 56.2066 76.8663ZM55.7204 87.8038H46.8489V78.6892H55.7204V87.8038Z" fill="#EDAE65"/>
<path d="M56.2066 95.7639H46.302C45.5121 95.7639 45.026 96.25 45.026 97.0399V107.248C45.026 108.038 45.5121 108.524 46.302 108.524H56.2066C56.9965 108.524 57.4826 108.038 57.4826 107.248V97.0399C57.5434 96.3107 56.9965 95.7639 56.2066 95.7639ZM55.7204 106.701H46.8489V97.5868H55.7204V106.701Z" fill="#EDAE65"/>
<path d="M97.4045 74.9826H89.0191C88.2292 74.9826 87.743 75.4687 87.743 76.2586V84.6441C87.743 85.434 88.4114 85.9201 89.0191 85.9201H97.4045C98.1944 85.9201 98.6805 85.434 98.6805 84.6441V76.2586C98.7413 75.4687 98.1944 74.9826 97.4045 74.9826ZM96.9184 84.0972H89.6267V76.8055H96.9184V84.0972Z" fill="#EDAE65"/>
<path d="M110.955 74.9826H102.569C101.779 74.9826 101.293 75.4687 101.293 76.2586V84.6441C101.293 85.434 101.779 85.9201 102.569 85.9201H110.955C111.745 85.9201 112.231 85.434 112.231 84.6441V76.2586C112.231 75.4687 111.745 74.9826 110.955 74.9826ZM110.408 84.0972H103.116V76.8055H110.408V84.0972Z" fill="#EDAE65"/>
<path d="M116.788 66.5972H83.9756V33.5416C83.9756 32.934 83.611 32.5694 83.0034 32.5694H38.2812C37.6735 32.5694 37.309 32.934 37.309 33.5416V110.043V115.512V115.998C37.309 116.606 37.6735 116.97 38.2812 116.97H39.1319H43.4461H116.788C117.396 116.97 117.76 116.606 117.76 115.998V67.5086C117.76 66.9618 117.396 66.5972 116.788 66.5972ZM82.0312 115.087L41.5624 114.965L39.3142 115.087V110.104V34.5138H82.0312V102.387L82.092 102.691V114.601L82.0312 115.087ZM104.696 115.087H95.0954V94.7309H104.696V115.087ZM115.755 115.087H106.641V93.7586C106.641 93.151 106.276 92.7864 105.668 92.7864H94.0624C93.4548 92.7864 93.0902 93.151 93.0902 93.7586V115.087H83.9756V68.6024H115.755V115.087Z" fill="#EDAE65"/>
</svg>
