<svg width="147" height="140" viewBox="0 0 147 140" fill="none" xmlns="http://www.w3.org/2000/svg">
<path d="M77.1566 3.68586C77.1566 3.68586 113.831 17.6306 126.67 21.8078C139.509 25.9851 158.183 51.2945 135.884 93.6815C113.585 136.068 99.0873 147.556 56.0245 135.454C12.9618 123.352 -5.4059 105.353 1.35145 59.8947C8.41595 12.5318 52.953 -9.27596 77.1566 3.68586Z" fill="#FCF2F0"/>
<path d="M69.5393 23.0364L32.0667 62.3519H38.8241V97.3673L99.6402 100.439L100.869 62.3519H107.626L69.5393 23.0364Z" fill="white"/>
<path d="M31.7595 99.8245C31.2681 99.8245 30.8381 99.3945 30.8381 98.9031C30.8381 98.4116 31.2681 97.9816 31.7595 97.9816H39.1926V61.7991H31.7595C31.3909 61.7991 31.0224 61.5533 30.8995 61.2462C30.7766 60.8776 30.8381 60.509 31.0838 60.2019L69.1707 22.115C69.355 21.9307 69.6007 21.8693 69.8464 21.8693C70.0921 21.8693 70.3379 21.9921 70.5221 22.115L108.609 60.2019C108.855 60.4476 108.978 60.8776 108.793 61.2462C108.67 61.6148 108.302 61.7991 107.933 61.7991H100.5V97.9816H107.933C108.425 97.9816 108.855 98.4116 108.855 98.9031C108.855 99.3945 108.425 99.8245 107.933 99.8245H31.7595ZM77.8938 67.0207C78.3852 67.0207 78.8153 67.4507 78.8153 67.9421V97.9816H98.5959V61.7991H97.3672C97.1215 61.7991 96.8758 61.6762 96.6915 61.5533L69.785 34.6468L42.8784 61.5533C42.6942 61.7376 42.4484 61.7991 42.2027 61.7991H40.9741V97.9816H60.7547V67.9421C60.7547 67.4507 61.1847 67.0207 61.6762 67.0207H77.8938ZM62.7205 97.9816H76.9723V68.8636H62.7205V97.9816ZM69.8464 32.3124C70.0921 32.3124 70.3379 32.4353 70.5221 32.5582L97.7973 59.8333H105.66L69.8464 24.0193L34.0325 59.8947H41.8956L69.1707 32.6196C69.355 32.4353 69.6007 32.3124 69.8464 32.3124Z" fill="#E17D72"/>
<path d="M71.075 59.2804C73.6195 59.2804 75.6823 57.2177 75.6823 54.6731C75.6823 52.1286 73.6195 50.0659 71.075 50.0659C68.5305 50.0659 66.4677 52.1286 66.4677 54.6731C66.4677 57.2177 68.5305 59.2804 71.075 59.2804Z" fill="#EAA49C"/>
<path d="M68.0035 82.3169C67.6964 82.0097 67.3278 81.8868 66.8978 81.8868C66.4677 81.8868 66.0992 82.0711 65.792 82.3169C65.4849 82.5626 65.362 82.9926 65.362 83.4226C65.362 83.8526 65.5463 84.2212 65.792 84.5284C66.0992 84.8355 66.4677 84.9584 66.8978 84.9584C67.3278 84.9584 67.6964 84.7741 68.0035 84.5284C68.3107 84.2212 68.4335 83.8526 68.4335 83.4226C68.4335 82.9926 68.3107 82.624 68.0035 82.3169Z" fill="#E17D72"/>
<path d="M69.8465 60.2633C66.2835 60.2633 63.3348 57.3146 63.3348 53.7517C63.3348 50.1887 66.2835 47.2401 69.8465 47.2401C73.4094 47.2401 76.3581 50.1887 76.3581 53.7517C76.3581 57.3146 73.4709 60.2633 69.8465 60.2633ZM69.8465 49.1444C67.2664 49.1444 65.1778 51.233 65.1778 53.8131C65.1778 56.3932 67.2664 58.4818 69.8465 58.4818C72.4265 58.4818 74.5152 56.3932 74.5152 53.8131C74.5152 51.233 72.4265 49.1444 69.8465 49.1444Z" fill="#E17D72"/>
<path d="M92.8829 70.3379H86.7398V83.2383H92.8829V70.3379Z" fill="#EAA49C"/>
<path d="M55.4102 70.3379H48.6529V83.2383H55.4102V70.3379Z" fill="#EAA49C"/>
<path d="M84.4055 84.344C83.914 84.344 83.484 83.914 83.484 83.4226V67.9421C83.484 67.4506 83.914 67.0206 84.4055 67.0206H93.0672C93.5586 67.0206 93.9886 67.4506 93.9886 67.9421V83.4226C93.9886 83.914 93.5586 84.344 93.0672 84.344H84.4055ZM85.3269 82.5011H92.1457V68.8635H85.3269V82.5011Z" fill="#E17D72"/>
<path d="M46.6257 84.344C46.1343 84.344 45.7043 83.914 45.7043 83.4226V67.9421C45.7043 67.4506 46.1343 67.0206 46.6257 67.0206H55.2874C55.7789 67.0206 56.2089 67.4506 56.2089 67.9421V83.4226C56.2089 83.914 55.7789 84.344 55.2874 84.344H46.6257ZM47.5472 82.5011H54.366V68.8635H47.5472V82.5011Z" fill="#E17D72"/>
</svg>
