<svg width="143" height="93" viewBox="0 0 143 93" fill="none" xmlns="http://www.w3.org/2000/svg">
<path d="M138.167 74.8564C138.167 78.1558 116.863 80.8367 90.5922 80.8367C64.321 80.8367 43.0172 78.1558 43.0172 74.8564C43.0172 71.557 64.321 68.8762 90.5922 68.8762C116.863 68.8762 138.167 71.557 138.167 74.8564Z" fill="#BBD9A7"/>
<path d="M142.418 81.5069C142.418 83.6721 128.437 85.4765 111.179 85.4765C93.9208 85.4765 79.9402 83.7237 79.9402 81.5069C79.9402 79.3416 93.9208 77.5372 111.179 77.5372C128.437 77.5372 142.418 79.3416 142.418 81.5069Z" fill="#BBD9A7"/>
<path d="M67.9056 90.3741C67.9056 91.3021 61.9139 92.0754 54.5907 92.0754C47.2164 92.0754 41.2759 91.3021 41.2759 90.3741C41.2759 89.4462 47.2676 88.6729 54.5907 88.6729C61.9651 88.6729 67.9056 89.4462 67.9056 90.3741Z" fill="#8878FF"/>
<path d="M54.5908 83.2081C54.5908 85.1156 42.3514 86.6622 27.2954 86.6622C12.1882 86.6622 -6.10352e-05 85.1156 -6.10352e-05 83.2081C-6.10352e-05 81.3006 12.2394 79.754 27.2954 79.754C42.3514 79.754 54.5908 81.3006 54.5908 83.2081Z" fill="#8878FF"/>
<path d="M106.416 41.5526C95.2523 41.6042 86.1367 32.376 86.0343 20.9311C85.9319 9.43457 94.9962 0.0517688 106.16 0.000214959C117.324 -0.0513389 126.44 9.1768 126.542 20.6218C126.593 32.1183 117.58 41.5011 106.416 41.5526ZM106.16 1.54683C95.9692 1.59838 87.7243 10.2594 87.7755 20.8795C87.8267 31.4481 96.1741 40.0576 106.365 39.9545C116.556 39.8513 124.801 31.2418 124.75 20.6218C124.699 10.0532 116.351 1.49528 106.16 1.54683Z" fill="#1D3B54"/>
<path d="M127.314 23.3253L85.2699 23.5911L85.5802 73.3406L127.624 73.0748L127.314 23.3253Z" fill="#88BF63"/>
<path d="M127.409 37.2965L85.3649 37.5623L85.5884 73.3922L127.633 73.1264L127.409 37.2965Z" fill="white"/>
<path d="M62.6311 81.8162L24.0692 82.074L23.762 36.4488H24.6326L26.2713 36.3973L59.8145 36.191H61.4532H62.3238L62.6311 81.8162Z" fill="#8878FF"/>
<path d="M62.4303 48.959L23.8685 49.2023L24.0729 82.0421L62.6347 81.7988L62.4303 48.959Z" fill="white"/>
<path d="M59.8144 36.191C58.6877 44.749 51.6718 51.3479 43.1196 51.451C34.5673 51.5025 27.449 44.9552 26.2199 36.4488H24.5812C25.8102 45.7801 33.6455 52.946 43.0683 52.8945C52.4912 52.8429 60.224 45.5738 61.3507 36.191H59.8144Z" fill="#1D3B54"/>
</svg>
