<svg width="347" height="249" viewBox="0 0 347 249" fill="none" xmlns="http://www.w3.org/2000/svg">
<path d="M33.2367 123.605C33.2367 123.605 26.8374 83.7923 42.4706 74.3007C58.1038 64.852 152.204 65.5822 152.204 65.5822C152.204 65.5822 281.564 69.3616 303.597 74.3007C325.672 79.2397 313.904 123.605 313.904 123.605C313.904 123.605 306.689 163.075 300.075 175.229L41.268 170.72L33.2367 123.605Z" fill="#F2BB2C"/>
<path d="M298.915 167.627L291.313 223.847H55.8275L47.6244 169.517L298.915 167.627Z" fill="#F09811"/>
<path d="M291.313 223.847C291.313 223.847 297.326 124.679 324.512 118.838C351.742 112.997 351.055 148.172 337.783 176.733L313.861 223.847H291.313Z" fill="#F2BB2C"/>
<path d="M55.7846 223.847C55.7846 223.847 49.7718 124.679 22.5855 118.838C-4.64374 112.997 -3.99952 148.172 9.27153 176.69L33.1938 223.804H55.7846V223.847Z" fill="#F2BB2C"/>
<path d="M283.54 223.847C286.202 250.303 291.27 248.156 291.27 248.156C296.725 248.156 291.27 223.847 291.27 223.847" fill="#E2AF75"/>
<path d="M55.7845 223.847C55.7845 223.847 50.3301 248.156 55.7845 248.156C55.7845 248.156 60.8525 250.303 63.5153 223.847H55.7845Z" fill="#E2AF75"/>
<path d="M218.946 30.4504C221.136 31.1805 223.24 32.2113 225.388 33.1132C225.946 33.3279 226.505 33.5856 226.848 34.101C227.235 34.6593 227.235 35.4754 227.235 36.1625C227.063 41.6599 226.419 47.1573 225.302 52.5259C225.216 52.9983 225.087 53.4707 224.787 53.8573C223.971 54.888 222.424 54.4156 221.308 53.8573C220.32 53.3848 219.289 52.8694 218.301 52.397C217.743 52.0964 217.142 51.8387 216.755 51.2804C216.154 50.4214 216.24 49.2618 216.369 48.1881C216.884 43.2061 217.056 38.1382 216.927 33.1132C216.884 32.5978 216.884 29.7203 218.946 30.4504Z" fill="#444456"/>
<path d="M219.976 58.9681C220.105 64.2507 220.406 67.1283 221.093 71.9385L213.062 72.0673C212.976 71.6808 212.89 71.2513 212.847 70.8218C212.761 69.9629 212.804 69.1039 212.847 68.2449C213.062 64.2937 213.104 62.9193 213.319 59.011C213.448 56.0047 212.417 52.7835 212.117 49.7771C211.816 46.7708 211.945 43.5926 213.319 40.9727C213.92 39.8561 214.779 38.8253 215.982 38.5676C217.056 38.3529 218.129 38.8683 219.031 39.5554C220.492 40.758 221.436 42.5618 221.694 44.4945C221.823 45.697 221.694 46.8996 221.565 48.1022C221.394 49.8201 221.179 51.538 221.007 53.256C221.565 53.9002 221.952 54.029 222.553 54.2008C223.283 54.4585 223.369 54.072 223.154 54.6733C222.424 56.563 221.222 57.5508 219.976 58.9681Z" fill="#E5C1A7"/>
<path d="M282.08 1.46025C290.455 1.97563 296.553 10.9089 298.572 19.0691C299.946 24.6524 299.345 30.5363 300.075 36.2484C300.848 42.2612 303.167 48.1451 306.99 52.8265C309.438 55.8329 312.487 58.3239 315.021 61.2014C317.598 64.1219 319.745 67.6437 319.831 71.509C319.917 75.0737 318.156 78.6814 315.279 80.7429C312.358 82.8474 308.407 83.4057 305.057 82.1602C305.057 82.1602 285.859 106.512 258.93 55.4463C257.47 52.6976 255.666 50.1637 254.636 47.2432C252.531 41.4452 251.629 35.0888 252.402 28.1741C252.445 28.2171 253.39 -0.257683 282.08 1.46025Z" fill="#604046"/>
<path d="M98.1747 146.11C87.6523 147.012 76.8294 148.172 67.5525 153.197C66.8224 153.583 66.0493 154.142 66.0493 154.958C66.0493 155.559 66.5217 156.031 66.9942 156.375C68.7551 157.621 71.0313 157.921 73.2217 157.792C78.1178 157.535 82.8851 155.516 87.7812 155.817C89.4562 155.903 91.1312 156.289 92.8491 156.246C94.5241 156.203 96.3279 155.645 97.3157 154.271C97.7023 153.755 97.917 153.111 97.8311 152.467L98.1747 146.11Z" fill="#EBC7AF"/>
<path d="M187.078 125.882C187.078 125.882 177.629 104.021 175.525 92.0813C175.525 92.0813 168.052 112.353 162.984 120.427L154.738 140.012L147.222 154.228L138.031 152.982L139.148 147.442L143.7 124.507C143.7 124.507 159.076 70.0488 175.782 64.6802C192.489 59.3117 221.265 119.439 221.265 119.439L230.155 110.205L261.808 126.612C261.808 126.612 264.084 161.958 243.813 164.922C223.541 167.885 190.728 161.658 162.082 143.448C162.082 143.448 157.315 140.183 150.443 143.147C143.571 146.11 125.103 153.283 98.819 156.59C98.819 156.59 93.4505 148.816 96.4139 142.589C96.4139 142.589 122.956 133.054 138.761 126.483C154.566 119.912 161.438 120.513 161.438 120.513C174.58 120.513 213.062 132.453 213.062 132.453C213.062 132.453 222.682 135.159 226.805 136.919" fill="#424DBF"/>
<path d="M283.411 139.067C297.155 135.631 313.389 128.244 313.389 128.244C328.12 119.912 302.609 82.2891 295.222 67.3001C288.651 53.9861 281.264 51.7957 281.264 51.7957C277.312 50.0778 265.072 48.9611 265.072 48.9611C249.482 46.7278 239.69 75.1596 235.266 91.3512C230.842 107.586 230.241 110.12 230.241 110.12C237.628 123.391 261.894 126.526 261.894 126.526C261.937 120.298 263.998 113.856 266.275 108.015C266.919 106.383 267.606 104.794 268.637 103.377C274.263 95.603 281.908 85.7249 282.251 81.0435L285.129 87.7005C285.129 87.7005 294.749 109.561 302.094 119.396C302.094 119.396 296.296 125.152 279.589 133.011L283.411 139.067Z" fill="#F17187"/>
<path d="M254.593 19.971L254.679 23.6216C251.672 23.4069 251.629 26.3274 251.629 26.3274C252.016 29.6344 255.151 28.8613 255.151 28.8613C255.151 28.8613 253.562 46.2125 271.987 46.5561C290.412 46.8997 290.111 29.5056 290.111 29.5056C290.111 29.5056 294.621 30.2357 294.32 26.1556C294.32 26.1556 294.749 23.7075 291.013 23.8364L291.185 20.6582C291.185 20.6582 291.357 4.98204 272.287 5.02499C272.244 5.02499 256.869 2.61988 254.593 19.971Z" fill="#EBC7AF"/>
<path d="M253.004 23.9223C259.317 23.0633 266.661 16.7069 270.741 11.5102C273.791 21.1736 282.767 29.8062 292.903 30.3216C293.461 30.3645 300.59 30.3216 294.492 18.5537C293.547 16.7069 292.731 14.8172 291.829 12.9275C289.939 8.93328 287.878 4.76729 284.141 2.40513C280.319 1.809e-05 275.38 -0.0429278 270.956 0.944884C263.311 2.61987 255.752 7.68777 253.82 15.2896C253.261 17.9095 252.102 21.3883 253.004 23.9223Z" fill="#604046"/>
<path d="M146.62 154.228C146.878 156.246 147.136 158.265 147.394 160.326C147.522 161.4 147.651 162.517 147.093 163.419C146.406 164.621 144.817 164.965 143.442 164.75C142.068 164.535 140.822 163.848 139.534 163.419C132.362 160.885 124.33 165.136 116.9 163.547C116.17 163.376 115.354 163.032 115.311 162.302C115.268 161.572 115.998 161.099 116.643 160.799C123.686 157.406 131.116 154.829 138.761 153.111L146.62 154.228Z" fill="#EBC7AF"/>
<path d="M260.992 49.09C260.992 49.09 246.089 47.6297 225.345 92.0383L220.363 64.2937H212.761C212.761 64.2937 211.816 108.659 222.295 108.273C232.775 107.886 260.992 49.09 260.992 49.09Z" fill="#F17187"/>
<path d="M265.029 49.0041C256.955 60.1277 263.483 62.6187 263.483 62.6187C273.06 63.4348 276.711 50.6791 276.711 50.6791V38.8683L266.532 39.4266L265.029 49.0041Z" fill="#EBC7AF"/>
<path d="M280.061 133.784C275.809 134.772 271.729 136.318 267.907 138.38C266.704 139.024 265.459 139.797 264.771 140.957C264.084 142.159 264.17 143.877 265.287 144.65C265.974 145.123 266.833 145.123 267.649 145.123C273.318 144.908 279.03 142.288 282.767 138.036L280.061 133.784Z" fill="#E5C1A7"/>
<path d="M284.871 30.5793C284.828 31.3953 284.313 32.1254 283.626 32.5549C282.939 33.0273 282.08 33.0703 281.307 32.9414C280.92 32.8555 280.534 32.7267 280.19 32.5549C279.803 32.3831 279.503 32.0395 279.331 31.6959C278.987 30.9658 278.901 30.1068 279.202 29.3767C279.202 29.3338 279.288 29.2908 279.331 29.3338C279.374 29.3338 279.417 29.4197 279.374 29.4626C279.245 29.8062 279.202 30.1927 279.245 30.5363C279.288 30.9229 279.374 31.2664 279.546 31.5671C279.717 31.8677 279.975 32.1684 280.276 32.2972C280.619 32.469 280.963 32.5549 281.35 32.6408C282.08 32.8126 282.853 32.7267 283.454 32.3402C283.755 32.1684 284.055 31.8677 284.227 31.5671C284.442 31.2664 284.614 30.9229 284.657 30.5793C284.657 30.5363 284.7 30.4934 284.742 30.4934C284.871 30.4934 284.871 30.5363 284.871 30.5793Z" fill="#444456"/>
<path d="M264.771 26.9286C264.728 27.7447 264.213 28.4748 263.526 28.9043C262.839 29.3767 261.98 29.4196 261.207 29.2908C260.82 29.2049 260.434 29.0761 260.09 28.9043C259.704 28.7325 259.403 28.3889 259.231 28.0453C258.888 27.3152 258.802 26.4562 259.102 25.7261C259.102 25.6831 259.188 25.6402 259.231 25.6831C259.274 25.6831 259.317 25.769 259.274 25.812C259.145 26.1556 259.102 26.5421 259.145 26.8857C259.188 27.2722 259.274 27.6158 259.446 27.9164C259.618 28.2171 259.875 28.5177 260.176 28.6466C260.52 28.8184 260.863 28.9043 261.25 28.9902C261.98 29.162 262.753 29.0761 263.354 28.6895C263.655 28.5177 263.955 28.2171 264.127 27.9164C264.342 27.6158 264.514 27.2722 264.557 26.9286C264.557 26.8857 264.6 26.8427 264.643 26.8427C264.728 26.8427 264.771 26.8857 264.771 26.9286Z" fill="#444456"/>
<path d="M271.3 29.8062C270.741 29.978 270.269 30.4934 270.226 31.0517C270.183 31.3523 270.226 31.61 270.355 31.8677C270.484 32.1254 270.698 32.3401 270.913 32.5119C270.956 32.5549 270.956 32.5978 270.956 32.6408C270.913 32.6837 270.87 32.6837 270.827 32.6837C270.527 32.5549 270.269 32.2972 270.097 31.9966C269.925 31.6959 269.839 31.3523 269.882 31.0087C269.968 30.3216 270.569 29.7203 271.214 29.6344C271.257 29.6344 271.3 29.6773 271.3 29.7203C271.385 29.7632 271.343 29.8062 271.3 29.8062Z" fill="#444456"/>
<path d="M273.705 35.1318C272.03 36.2055 269.71 36.3344 267.95 35.4324C267.907 35.3895 267.864 35.3465 267.907 35.3036C267.95 35.2606 267.992 35.2606 268.035 35.2606C269.839 35.9908 271.901 35.8619 273.662 35.003C273.705 34.96 273.748 35.003 273.791 35.0459C273.748 35.0889 273.748 35.1318 273.705 35.1318Z" fill="#444456"/>
<path d="M246.819 61.7598C244.715 65.4963 242.954 69.4046 241.365 73.3558C239.818 77.35 238.401 81.3872 237.156 85.4673C236.511 87.5288 235.91 89.5474 235.352 91.6089C234.793 93.6704 234.235 95.7319 233.677 97.7934L231.959 103.978L230.198 110.163L231.744 103.935L233.333 97.7075C234.407 93.5845 235.481 89.4185 236.726 85.3384C238.015 81.2583 239.389 77.1782 241.021 73.227C241.837 71.2513 242.696 69.2757 243.684 67.386C244.672 65.4533 245.702 63.5636 246.819 61.7598Z" fill="#5284AA"/>
<path d="M286.031 4.85318C288.951 6.39932 291.228 8.97622 292.817 11.8108C294.406 14.6884 295.394 17.9095 295.952 21.1306C297.112 27.6158 296.854 34.2728 298.228 40.6721C299.603 47.0714 302.824 53.0412 307.419 57.6797C308.579 58.8393 309.824 59.913 311.113 60.9437C312.401 61.9745 313.69 63.0053 314.72 64.2937C315.236 64.9379 315.751 65.5822 316.095 66.3552C316.438 67.0853 316.696 67.9014 316.825 68.7174C316.954 69.5334 316.954 70.3494 316.782 71.1654C316.61 71.9815 316.224 72.7116 315.708 73.3558C316.224 72.7116 316.61 71.9815 316.739 71.1654C316.911 70.3494 316.868 69.5334 316.739 68.7174C316.61 67.9014 316.309 67.1283 315.966 66.3982C315.579 65.6681 315.107 65.0238 314.592 64.3796C313.518 63.1341 312.229 62.1033 310.984 61.0726C309.695 60.0418 308.45 59.0111 307.29 57.8085C302.652 53.1701 299.345 47.1573 297.928 40.7151C296.553 34.2728 296.854 27.6158 295.737 21.1736C295.179 17.9524 294.234 14.7742 292.688 11.8967C291.142 9.01917 288.908 6.44227 286.031 4.85318Z" fill="#835961"/>
<path d="M288.436 26.7998C287.534 26.8857 286.632 26.4991 285.902 26.0267C285.129 25.5543 284.399 25.0389 283.669 24.5235C282.208 23.4498 280.877 22.2473 279.674 20.9159C279.073 20.2716 278.472 19.5845 277.957 18.8543C277.398 18.1242 276.883 17.3941 276.453 16.621C276.024 15.848 275.637 15.0319 275.38 14.13C275.122 13.2711 274.993 12.3691 275.122 11.4672C275.079 13.2711 275.766 14.989 276.711 16.4922C277.656 17.9954 278.773 19.4127 279.975 20.7011C281.178 22.0325 282.509 23.2351 283.883 24.3088C284.571 24.8671 285.301 25.3825 286.031 25.8979C286.675 26.3703 287.491 26.7998 288.436 26.7998Z" fill="#835961"/>
<path d="M285.601 20.6152C284.914 20.1428 284.227 19.6274 283.583 19.112C282.939 18.5537 282.337 17.9954 281.779 17.3511C281.264 16.7069 280.791 15.9768 280.448 15.2037C280.104 14.4307 279.889 13.6146 279.889 12.7557C280.018 13.5717 280.319 14.3448 280.705 15.0749C281.092 15.805 281.564 16.4922 282.08 17.1364C282.595 17.7806 283.196 18.339 283.797 18.9402C284.356 19.4986 285 20.0569 285.601 20.6152Z" fill="#835961"/>
<path d="M269.925 2.9205C268.207 3.43588 266.575 4.20895 265.072 5.15382C263.569 6.09868 262.152 7.25828 260.949 8.54673C259.704 9.83518 258.673 11.2954 257.814 12.8845C256.955 14.4307 256.311 16.1486 255.881 17.8665C256.182 16.1056 256.783 14.3448 257.599 12.7557C258.415 11.1236 259.489 9.66339 260.734 8.33199C261.98 7.00059 263.397 5.84099 264.943 4.93907C266.489 4.03716 268.164 3.34999 269.925 2.9205Z" fill="#835961"/>
<path d="M265.759 7.68777C265.244 8.07431 264.771 8.5038 264.299 8.93328C263.827 9.40571 263.397 9.87814 263.011 10.3506C262.624 10.866 262.28 11.3813 261.937 11.9397C261.636 12.498 261.336 13.0993 261.078 13.6576C261.207 13.0134 261.421 12.4121 261.679 11.8108C261.937 11.2095 262.323 10.6512 262.71 10.1358C263.096 9.62045 263.569 9.14802 264.084 8.71854C264.643 8.332 265.201 7.98841 265.759 7.68777Z" fill="#835961"/>
<path d="M311.757 77.8225C310.941 78.4237 309.867 78.5526 308.879 78.5526C307.849 78.5526 306.861 78.3378 305.916 77.9943C304.971 77.6507 304.069 77.1353 303.296 76.4911C302.523 75.8468 301.836 75.1167 301.32 74.2578C301.664 74.6443 301.965 75.0308 302.308 75.3744C302.652 75.718 303.038 76.0186 303.425 76.3193C304.241 76.8776 305.1 77.393 306.002 77.6936C306.904 78.0372 307.892 78.2519 308.879 78.2949C309.352 78.3378 309.867 78.3378 310.34 78.2519C310.812 78.209 311.284 78.0801 311.757 77.8225Z" fill="#835961"/>
<path d="M312.272 70.3494C312.229 69.4905 311.972 68.6745 311.499 67.9443C311.027 67.2142 310.425 66.6129 309.781 66.0546C308.493 64.938 307.033 64.036 305.701 62.9623C302.995 60.8579 300.419 58.5386 298.099 56.0476C296.94 54.7592 295.866 53.4278 295.007 51.9246C294.148 50.4214 293.461 48.7894 293.117 47.1144C292.731 45.4394 292.559 43.7215 292.559 42.0035C292.559 40.2856 292.688 38.5677 292.86 36.8497C292.731 38.5677 292.645 40.2856 292.731 42.0035C292.774 43.7215 292.988 45.4394 293.375 47.0714C293.804 48.7035 294.406 50.3355 295.308 51.7958C296.167 53.256 297.24 54.5874 298.4 55.8758C300.719 58.4098 303.253 60.6861 305.916 62.8335C307.247 63.9072 308.708 64.8521 309.953 66.0117C310.597 66.6129 311.156 67.2572 311.628 67.9873C312.015 68.6745 312.272 69.4905 312.272 70.3494Z" fill="#835961"/>
<path d="M259.231 47.0714C258.63 46.5131 258.114 45.8688 257.642 45.2246C257.17 44.5804 256.74 43.8932 256.353 43.1631C255.967 42.433 255.623 41.7029 255.366 40.9298C255.108 40.1567 254.893 39.3836 254.764 38.5676C255.022 39.3407 255.323 40.1138 255.623 40.8439C255.924 41.574 256.268 42.3041 256.654 43.0343C257.041 43.7644 257.427 44.4515 257.857 45.0958C258.286 45.7829 258.759 46.4272 259.231 47.0714Z" fill="#835961"/>
<path d="M276.969 46.2124C276.969 46.2124 270.956 47.8874 265.201 45.5253C265.201 45.5253 268.98 52.0105 276.969 46.2124Z" fill="#EBC7AF"/>
</svg>
