<svg width="211" height="341" viewBox="0 0 211 341" fill="none" xmlns="http://www.w3.org/2000/svg">
<path d="M155.401 281.114H157.553C157.553 268.667 167.406 258.483 179.411 258.483C191.415 258.483 201.268 268.667 201.268 281.114H203.42C203.42 267.535 192.661 256.446 179.411 256.446C166.16 256.446 155.401 267.535 155.401 281.114Z" fill="#3C3C3B"/>
<path d="M154.722 278.964L162.083 327.056H196.852L204.213 278.964H154.722Z" fill="#DD840E"/>
<path d="M167.293 278.964L174.768 327.056H196.852L204.213 278.964H167.293Z" fill="#F09811"/>
<path opacity="0.1" d="M162.083 327.056C181.789 320.493 195.04 303.067 204.213 278.964L196.852 327.056H182.922H162.083Z" fill="#050504"/>
<path d="M132.88 0.323181H135.251V236.093H132.88V0.323181Z" fill="#878787"/>
<path d="M73.7473 145.665C74.3135 144.986 74.6533 143.854 75.5593 143.628C76.352 143.402 77.1448 143.854 77.9376 144.194C80.4291 145.665 82.9206 147.249 85.4122 148.72C86.0917 149.173 86.8844 149.739 86.9977 150.531C86.9977 151.21 86.5447 151.889 85.9784 152.341C85.4122 153.02 84.6194 153.699 83.8266 153.812C83.0339 153.925 82.3544 153.586 81.6749 153.36C78.8436 152.228 76.0123 151.097 73.2943 149.625C72.8412 149.399 72.275 149.06 72.0485 148.494C71.822 147.928 72.1617 147.362 72.5015 146.91C72.9545 146.457 73.4075 146.118 73.7473 145.665Z" fill="#EDBB86"/>
<path d="M197.644 240.717C198.324 240.717 199.003 240.378 199.343 239.812C200.022 238.907 199.796 237.549 198.89 236.87L20.1792 106.513C19.2732 105.834 17.9141 106.06 17.2346 106.965C16.5551 107.87 16.7816 109.228 17.6877 109.907L196.398 240.265C196.738 240.604 197.191 240.717 197.644 240.717Z" fill="#575756"/>
<path d="M83.2605 155.283C80.8822 155.849 80.4292 155.736 78.7304 154.491C75.6726 152.454 74.7666 151.662 71.7088 149.286C71.4823 151.549 70.3498 153.133 71.0293 155.283C71.7088 157.546 73.4076 159.244 74.8799 161.054C76.5787 162.978 78.3907 165.015 80.6557 166.373C83.2605 167.957 86.2051 168.636 89.1496 169.315C89.7159 169.428 90.2821 169.541 90.7351 169.315C91.3014 169.089 91.6411 168.523 91.8676 168.07C93.3399 165.128 93.2267 161.733 92.6604 158.565C92.3207 156.754 91.8676 154.831 90.6219 153.473C87.9038 150.191 82.6942 149.06 79.7497 146.118C79.1834 145.552 78.6172 144.873 77.8244 144.873C77.1449 144.873 76.5787 145.439 76.3521 146.118C76.2389 146.797 76.4654 147.475 76.8052 148.154C77.5979 149.399 78.8437 150.304 79.9762 151.21C81.222 152.002 83.034 153.812 83.2605 155.283Z" fill="#FFC990"/>
<path d="M96.8506 340.296H127.768C128.221 333.506 127.089 328.188 125.503 323.662C120.294 320.606 113.385 321.398 105.118 325.359L100.475 328.641C98.2096 330.225 96.8506 332.827 96.8506 335.656V340.296Z" fill="#323657"/>
<path d="M96.8505 250.109C99.5685 269.459 100.248 299.22 103.646 318.23C104.099 320.719 104.552 323.096 105.118 325.472C112.366 326.83 118.142 320.493 125.503 323.888C129.58 301.822 128.561 257.917 119.841 248.638C112.819 241.057 109.082 243.772 99.6818 248.751C98.7757 249.091 97.8697 249.543 96.8505 250.109Z" fill="#2C8E10"/>
<path d="M47.3598 340.296H91.7543C92.7736 335.883 92.8868 331.583 91.7543 327.283C86.3182 322.077 79.2966 319.814 70.6895 320.606C68.0847 324.793 57.5524 328.414 52.6826 330.564C49.5115 332.035 47.3598 335.204 47.3598 338.712V340.296Z" fill="#323657"/>
<path d="M80.4292 232.683L85.4122 254.635C85.6387 254.635 92.5471 254.635 102.626 254.522C103.872 254.522 105.005 254.522 106.364 254.522C111.007 254.522 116.217 254.409 121.653 254.409H122.106C125.843 254.409 129.58 254.296 133.318 254.296C154.835 254.07 175.447 253.843 175.447 253.843C180.204 248.525 183.375 235.738 179.977 223.97C179.637 222.838 157.667 222.725 143.17 222.612C138.527 222.612 134.677 222.612 132.525 222.612C131.392 222.612 130.713 222.612 130.713 222.612C127.429 222.499 124.257 222.499 121.086 222.725C111.573 223.178 102.513 224.762 95.3784 226.799C88.47 228.609 83.1472 230.872 80.4292 232.683Z" fill="#349A1B"/>
<path d="M70.6894 320.493C73.9737 321.851 76.9182 323.096 80.0892 324.227C83.3735 325.359 87.1108 326.377 91.7541 327.283C91.9806 326.717 92.2071 326.151 92.4336 325.585C99.2287 307.933 104.552 272.062 102.626 254.635C102.286 251.014 101.494 248.186 100.474 246.488C99.342 244.564 98.2094 242.98 97.0769 241.736C93.3396 237.775 82.241 232.457 80.429 232.909C80.429 232.683 70.4629 299.333 70.6894 320.493Z" fill="#349A1B"/>
<path d="M27.1632 85.3202L34.424 90.7355L7.46066 126.828L0.199891 121.413L27.1632 85.3202Z" fill="#575756"/>
<path d="M27.2096 85.3291L29.2971 86.886L2.33387 122.978L0.246396 121.421L27.2096 85.3291Z" fill="#3C3C3B"/>
<path d="M121.539 254.296H133.204V254.183C129.58 243.659 128.674 233.022 132.412 222.612C131.279 222.612 130.6 222.612 130.6 222.612C127.315 222.499 124.144 222.499 120.973 222.725C118.935 234.041 119.161 244.451 121.539 254.296Z" fill="#323657"/>
<path d="M119.614 258.37C120.294 258.37 120.973 257.917 121.2 257.238L131.732 221.141C131.959 220.349 131.506 219.444 130.6 219.217C129.807 218.991 128.901 219.444 128.674 220.349L118.142 256.559C117.915 257.351 118.368 258.257 119.274 258.483C119.274 258.257 119.501 258.37 119.614 258.37Z" fill="#878787"/>
<path d="M104.325 258.03C104.778 258.03 105.345 257.804 105.571 257.351L131.392 221.48C131.959 220.801 131.732 219.783 131.053 219.217C130.373 218.651 129.354 218.878 128.788 219.557L102.966 255.428C102.4 256.107 102.626 257.125 103.306 257.691C103.646 257.917 103.986 258.03 104.325 258.03Z" fill="#878787"/>
<path d="M101.381 253.617H181.336V259.841H101.381V253.617Z" fill="#7B6A58"/>
<path opacity="0.15" d="M101.381 253.617L106.364 254.522C111.007 254.522 116.217 254.409 121.653 254.409H122.106C125.843 254.409 129.58 254.296 133.318 254.296C154.835 254.07 175.447 253.843 175.447 253.843C180.204 248.525 183.375 235.738 179.977 223.97C170.691 246.149 138.414 251.58 101.381 253.617Z" fill="#131313"/>
<path opacity="0.15" d="M80.0893 324.227C83.3736 325.359 87.1109 326.377 91.7542 327.283C91.9807 326.717 92.2072 326.151 92.4338 325.585C99.2288 307.933 104.552 272.062 102.626 254.635C97.4168 282.133 90.8482 307.027 80.0893 324.227Z" fill="#131313"/>
<path d="M157.553 134.802C157.553 135.028 157.553 135.255 157.667 135.368C157.78 136.499 157.893 137.744 157.893 138.762C158.12 144.986 157.1 150.078 157.1 150.078C155.515 153.473 173.522 142.27 173.522 142.27C173.522 142.27 175.221 130.389 179.184 117.602C183.035 104.815 157.553 134.802 157.553 134.802Z" fill="#EEA886"/>
<path d="M155.628 100.063C155.628 100.063 148.946 106.626 150.645 108.436C152.117 110.02 145.888 116.47 144.982 117.602C144.076 118.734 147.474 120.77 147.927 121.789C148.493 122.807 147.7 133.444 150.531 134.689C153.476 135.933 168.312 135.368 173.182 132.765C178.051 130.049 186.319 113.868 186.206 105.834C186.092 97.7994 167.293 88.6337 155.628 100.063Z" fill="#EEA886"/>
<path d="M154.156 101.42C154.156 101.42 154.156 97.3468 164.009 93.4994C173.748 89.6521 183.148 99.4968 184.62 100.402C186.093 101.307 191.529 110.926 185.413 119.639C175.334 134.123 174.881 133.557 174.881 133.557C174.881 133.557 176.24 123.486 173.522 121.902C170.577 120.205 166.5 117.941 166.5 117.941C166.5 117.941 171.596 111.491 167.519 109.115C163.669 106.626 159.025 101.081 154.156 101.42Z" fill="#754836"/>
<path d="M168.312 118.96C168.765 118.168 170.917 114.66 173.861 116.131C176.693 117.602 174.201 122.015 171.03 124.052C167.746 126.202 165.594 123.373 168.312 118.96Z" fill="#EEA886"/>
<path d="M153.136 101.081C153.136 101.081 167.519 79.4679 184.847 94.4047C205.005 111.831 180.77 126.315 180.77 126.315C180.77 126.315 177.485 114.434 153.136 101.081Z" fill="#349A1B"/>
<path d="M154.495 99.1573C154.495 99.1573 150.985 98.3652 148.72 98.3652C141.698 98.2521 162.196 106.399 163.782 107.644C178.844 119.073 154.495 99.1573 154.495 99.1573Z" fill="#349A1B"/>
<path d="M157.553 135.368C157.666 136.499 157.78 137.744 157.78 138.762C165.368 138.536 171.37 133.557 171.37 133.557C166.047 135.255 157.553 135.368 157.553 135.368Z" fill="#BC6F0A"/>
<path d="M178.505 220.575C186.319 218.086 194.36 213.673 202.741 207.449C204.553 206.204 206.251 204.733 208.063 203.375C209.762 202.017 210.668 199.754 210.328 197.491C208.063 180.97 202.514 167.504 195.04 155.057L187.791 171.352L187.678 171.804L178.505 220.575Z" fill="#349A1B"/>
<path opacity="0.15" d="M178.505 220.575C186.319 218.086 194.36 213.673 202.741 207.449L194.473 202.47V171.918H187.905L178.505 220.575Z" fill="#131313"/>
<path d="M130.26 212.201C130.373 216.162 130.486 219.783 130.713 222.725C133.431 223.291 136.149 223.744 138.867 224.083C139.66 224.196 140.452 224.309 141.245 224.422C154.835 226.233 167.746 226.233 179.864 223.97C181.11 221.028 182.469 217.746 183.601 214.465C191.189 193.757 196.625 168.296 195.153 155.057C191.416 152.228 185.413 149.06 176.127 144.081L175.221 138.423C173.182 136.839 167.859 136.612 159.365 136.047C157.553 135.933 156.081 135.933 155.288 137.631L154.043 142.497C142.378 143.062 138.187 144.647 130.713 147.362C130.713 150.304 130.373 162.073 130.147 175.878C130.147 178.028 130.033 180.291 130.033 182.441C130.147 192.738 130.033 203.488 130.26 212.201Z" fill="#349A1B"/>
<path d="M86.4317 169.428C89.716 181.875 95.7183 191.154 105.118 199.754C114.292 197.717 122.559 191.267 130.26 182.554C132.525 179.952 134.79 177.123 137.055 174.067C137.395 173.615 137.735 173.162 138.074 172.71L137.508 170.899L136.489 167.391L130.826 147.476C122.672 156.415 115.084 165.581 109.422 175.312L93.9063 162.299C90.7352 163.77 88.357 166.26 86.4317 169.428Z" fill="#349A1B"/>
<path opacity="0.15" d="M121.086 222.725C111.573 223.178 102.513 224.762 95.3784 226.799C109.648 229.854 124.258 228.723 138.867 224.083C140.226 223.63 141.698 223.178 143.057 222.612C136.375 210.052 134.45 192.512 136.942 174.068C137.055 172.936 137.281 171.918 137.395 170.786C137.734 168.523 138.187 166.147 138.754 163.883C137.961 165.015 137.168 166.147 136.375 167.278C134.11 170.56 132.072 173.389 130.147 175.991C123.125 185.383 117.236 190.815 106.251 194.775L86.3183 169.541C89.6026 181.989 95.6049 191.267 105.005 199.867C114.178 197.831 122.446 191.381 130.147 182.667C130.033 192.852 129.92 203.602 130.147 212.315C130.26 216.275 130.373 219.896 130.6 222.838C127.542 222.499 124.258 222.499 121.086 222.725Z" fill="#131313"/>
<path d="M169.218 236.757C169.558 236.757 169.898 236.757 170.238 236.644C173.975 236.191 177.146 234.154 178.731 231.099C180.317 228.157 180.657 224.762 180.996 221.82L177.372 221.367C177.033 224.083 176.693 227.025 175.447 229.401C174.428 231.325 172.276 232.683 169.671 233.022C168.312 233.249 166.727 233.022 165.481 229.628C164.575 227.251 164.009 224.875 163.896 222.386L160.271 222.725C160.498 225.554 161.064 228.383 162.083 230.986C163.556 234.72 165.934 236.757 169.218 236.757Z" fill="#323657"/>
<path d="M145.436 236.644C149.06 236.644 152.684 234.494 154.835 231.212C156.761 228.157 157.1 224.762 157.553 221.82L153.929 221.367C153.59 224.083 153.25 226.912 151.778 229.288C150.532 231.212 148.04 233.136 145.209 233.022C143.057 232.909 140.792 231.438 139.546 229.401C138.301 227.365 137.961 224.762 137.734 222.386L134.11 222.725C134.337 225.554 134.79 228.496 136.375 231.212C138.187 234.38 141.585 236.53 144.983 236.757C145.096 236.644 145.322 236.644 145.436 236.644Z" fill="#323657"/>
<path d="M130.26 212.201C151.438 211.636 177.599 212.088 183.714 214.465C182.469 217.746 181.223 220.915 179.977 223.97L130.826 222.612L130.26 212.201Z" fill="#323657"/>
</svg>
