<svg width="452" height="446" viewBox="0 0 452 446" fill="none" xmlns="http://www.w3.org/2000/svg">
<path d="M351.937 404.857C351.937 404.857 359.75 395.32 345.533 393.858C331.315 392.397 113.458 387.875 104.053 395.847C94.648 403.818 113.614 406.819 116.77 406.793C119.927 406.767 -22.0811 412.673 3.22363 418.78C28.5284 424.887 129.631 435.106 145.388 431.818C161.145 428.531 137.561 439.777 165.97 439.543C194.38 439.309 339.674 449.164 353.788 437.996C367.902 426.829 457.917 432.402 451.474 416.668C445.03 400.933 369.259 399.978 351.937 404.857Z" fill="#F4F8F7"/>
<path d="M188.788 79.3389C188.788 79.3389 175.304 119.577 176.922 120.837C178.54 122.097 214.407 131.639 214.407 131.639C214.407 131.639 209.642 164.496 207.665 164.226C204.878 163.866 155.079 136.59 153.641 133.17C152.202 129.749 163.529 110.305 163.529 110.305C163.529 110.305 180.248 73.3076 188.788 79.3389Z" fill="white"/>
<path d="M240.205 404.034C240.205 404.034 251.352 401.694 251.801 401.333C252.161 400.973 254.498 396.472 256.296 397.283C258.004 398.003 258.183 403.404 259.891 404.304C261.599 405.204 275.173 414.026 276.881 415.646C278.588 417.267 288.656 416.096 289.915 418.977C291.173 421.858 291.353 428.609 276.161 427.259C260.97 425.908 243.711 428.699 240.475 426.989C237.059 425.188 239.216 408.355 240.205 404.034Z" fill="#323657"/>
<path d="M149.775 397.733C149.775 397.733 161.191 397.193 161.641 396.923C162.09 396.653 165.057 392.602 166.675 393.592C168.293 394.582 167.574 399.983 169.102 401.063C170.63 402.234 182.585 413.126 184.024 414.926C185.462 416.817 195.619 417.267 196.339 420.327C197.058 423.298 196.249 430.049 181.417 426.269C166.675 422.488 149.236 422.488 146.18 420.237C143.303 418.167 148.067 401.964 149.775 397.733Z" fill="#323657"/>
<path d="M219.62 55.9341C219.53 56.1142 219.44 56.3842 219.35 56.5642C218.901 57.8245 218.541 59.0847 218.272 60.345C216.564 67.1864 216.564 73.2176 216.564 73.2176C217.553 77.3584 200.024 60.6151 200.024 60.6151C200.024 60.6151 200.923 46.8423 199.575 31.5392C198.136 16.1461 219.62 55.9341 219.62 55.9341Z" fill="#EEA886"/>
<path d="M227.081 139.741C226.632 141.451 226.182 143.252 225.733 145.142C225.553 146.042 225.373 146.942 225.193 147.843C222.676 161.165 223.935 180.429 226.092 202.033C226.092 202.033 216.654 205.004 166.854 213.016C164.877 148.383 177.102 88.0706 177.102 88.0706C182.226 71.4172 187.889 68.8067 199.485 59.985C199.485 59.985 201.732 60.075 217.463 71.3272C218.541 72.1374 223.665 82.3094 226.811 93.6517C232.475 113.816 231.036 124.168 227.081 139.741Z" fill="#349A1B"/>
<path d="M213.148 121.647C212.069 123.448 210.901 125.158 209.553 126.778C205.777 131.189 201.103 134.34 197.058 135.51C194.9 136.14 192.923 136.14 191.305 135.51C191.125 135.42 191.035 135.42 190.855 135.33C182.945 131.369 176.113 84.0198 190.675 75.7381C190.675 75.7381 197.597 72.2274 204.339 75.018C211.081 77.8085 215.935 89.7809 216.834 107.154C217.193 112.375 215.665 117.326 213.148 121.647Z" fill="#385369"/>
<path d="M229.958 17.4064C229.958 17.4064 235.89 26.3182 233.553 28.0285C231.576 29.4688 236.969 38.2006 237.688 39.6409C238.407 41.0812 234.183 42.6115 233.374 43.6017C232.565 44.6819 230.946 56.8343 227.351 57.5545C223.845 58.2746 207.215 54.1338 202.361 49.9929C197.597 45.8521 192.024 25.598 194.181 16.5962C196.339 7.59443 219.53 1.83327 229.958 17.4064Z" fill="#EEA886"/>
<path d="M231.216 19.2068C231.216 19.2068 232.115 14.6159 222.047 8.04454C211.98 1.3832 199.215 10.295 197.327 11.0151C195.44 11.7353 187.08 21.1872 191.844 32.3494C199.754 51.0732 200.294 50.4431 200.294 50.4431C200.294 50.4431 201.103 38.7407 204.519 37.6605C208.204 36.4002 213.418 34.8699 213.418 34.8699C213.418 34.8699 209.283 26.4082 214.317 24.6979C219.351 22.8975 225.823 17.7665 231.216 19.2068Z" fill="#754836"/>
<path d="M211.26 35.6801C210.901 34.6899 209.283 30.189 205.777 31.1792C202.271 32.1694 203.979 37.7505 207.125 40.8111C210.182 43.8717 213.238 41.2612 211.26 35.6801Z" fill="#EEA886"/>
<path d="M232.475 19.1168C232.475 19.1168 221.508 -8.60881 198.586 4.17376C171.888 19.0267 195.62 40.9911 195.62 40.9911C195.62 40.9911 202.002 28.2986 232.475 19.1168Z" fill="#F89F17"/>
<path d="M231.396 16.6863C231.396 16.6863 235.531 16.5963 238.048 17.1364C245.958 18.6667 221.059 22.9876 218.991 23.9778C199.305 33.2496 231.396 16.6863 231.396 16.6863Z" fill="#E6900E"/>
<path d="M208.294 77.9886C208.294 77.9886 196.518 66.9163 185.911 81.2292C180.068 89.0608 185.732 99.0528 218.092 125.788C218.092 125.788 231.036 139.021 234.812 139.741C248.565 142.441 288.926 118.587 292.522 115.526L289.825 100.493C289.825 100.493 274.543 108.055 264.476 110.755C253.509 113.636 244.34 117.597 244.34 117.597L208.294 77.9886Z" fill="#385369"/>
<path d="M199.485 59.985L199.844 57.7345L217.733 68.2666L217.463 71.3272L199.485 59.985Z" fill="#385369"/>
<path d="M149.775 397.733L152.742 387.651L166.405 389.631L164.517 398.723L149.775 397.733Z" fill="#3B3F66"/>
<path d="M239.306 398.543L240.205 404.034L255.037 401.244L254.138 393.052L239.306 398.543Z" fill="#555C94"/>
<path d="M204.429 222.468C204.429 222.468 202.092 242.182 199.575 262.346C199.035 266.937 198.406 271.527 197.867 275.938C195.979 290.431 194.271 302.764 193.462 304.924C191.484 310.775 170.9 399.803 170.9 399.803C170.9 399.803 146 402.594 145.281 400.163C145.281 400.163 164.607 300.243 164.337 296.913C164.068 293.582 167.304 200.503 167.304 200.503C167.304 200.503 203.35 217.067 204.429 222.468Z" fill="#349A1B"/>
<path d="M224.385 194.202C224.385 194.202 243.801 285.21 245.419 292.232C247.037 299.163 262.948 404.034 262.948 404.034C262.948 404.034 252.251 411.235 237.419 408.355C237.419 408.355 214.766 297.903 213.058 294.572C206.227 281.609 182.585 217.337 179.259 208.335C175.934 199.333 166.855 190.241 166.855 190.241C166.855 190.241 190.676 176.288 224.385 194.202Z" fill="#349A1B"/>
<path d="M199.575 262.256C199.035 266.846 198.406 271.437 197.867 275.848C190.855 258.115 181.776 215.356 181.686 214.636C182.585 217.337 199.575 262.256 199.575 262.256Z" fill="#24880B"/>
<path d="M304.387 83.6597H305.736V77.9886L277.15 73.3076L277.33 60.165H282.274V58.9047L276.072 58.8147L275.892 74.3879L304.477 79.0688L304.387 83.6597Z" fill="#877373"/>
<path d="M285.33 52.2609L328.203 52.7635L328.032 67.435L285.158 66.9323L285.33 52.2609Z" fill="#E3DDDD"/>
<path d="M301.87 82.5795H308.252V121.287H301.87V82.5795Z" fill="#877373"/>
<path d="M289.825 59.5349C289.825 63.5857 287.757 66.8263 285.24 66.8263C282.723 66.8263 280.656 63.5857 280.656 59.5349C280.656 55.4841 282.723 52.2434 285.24 52.2434C287.757 52.2434 289.825 55.4841 289.825 59.5349Z" fill="#E3DDDD"/>
<path d="M332.703 60.075C332.703 64.1258 330.635 67.3664 328.118 67.3664C325.601 67.3664 323.534 64.1258 323.534 60.075C323.534 56.0242 325.601 52.7835 328.118 52.7835C330.635 52.7835 332.703 56.0242 332.703 60.075Z" fill="#B5B0B0"/>
<path d="M213.148 121.647C212.069 123.448 210.901 125.158 209.552 126.778C198.676 115.526 190.585 100.403 190.406 99.953C193.642 104.274 213.148 121.647 213.148 121.647Z" fill="#18354D"/>
<path d="M219.441 56.5642C218.991 57.8245 218.632 59.0847 218.362 60.345C209.822 58.3646 204.339 51.2532 204.339 51.2532C210.002 54.4038 219.441 56.5642 219.441 56.5642Z" fill="#BC6F0A"/>
<path d="M312.297 109.765C312.297 109.765 310.859 111.025 310.05 111.205C310.05 111.205 308.522 111.475 307.443 111.745C307.084 111.835 306.814 111.925 306.634 112.015C305.825 112.375 304.117 113.276 302.05 113.456C299.982 113.636 291.083 111.835 291.083 111.835L290.993 106.074L289.915 100.853C289.915 100.853 301.061 92.4815 302.949 92.0314C303.129 92.0314 303.308 91.9414 303.488 91.9414C305.106 91.7613 306.365 92.3915 307.264 92.3915C307.623 92.3915 310.679 92.7515 311.219 93.6517C311.848 94.912 311.848 96.0822 311.488 96.9824C311.488 96.9824 312.657 99.5029 312.297 101.393C312.297 101.393 313.466 103.644 312.387 105.984C312.297 105.984 313.196 108.505 312.297 109.765Z" fill="#EEA886"/>
<path d="M384.682 408.594C411.031 408.594 432.39 405.882 432.39 402.537C432.39 399.192 411.031 396.48 384.682 396.48C358.333 396.48 336.973 399.192 336.973 402.537C336.973 405.882 358.333 408.594 384.682 408.594Z" fill="#FF556F"/>
<path d="M405.28 413.226C422.598 413.226 436.638 411.439 436.638 409.235C436.638 407.032 422.598 405.245 405.28 405.245C387.962 405.245 373.923 407.032 373.923 409.235C373.923 411.439 387.962 413.226 405.28 413.226Z" fill="#FF556F"/>
<path d="M389.071 400.685L350.422 400.898L350.139 355.151H350.989H352.617L386.239 354.937H387.867H388.787L389.071 400.685Z" fill="#FF556F"/>
<path d="M388.827 367.714L350.179 367.958L350.384 400.879L389.032 400.635L388.827 367.714Z" fill="white"/>
<path d="M386.239 354.937C385.177 363.488 378.099 370.115 369.534 370.186C360.969 370.257 353.82 363.702 352.617 355.151H350.989C352.192 364.485 360.12 371.682 369.534 371.611C378.948 371.54 386.735 364.272 387.867 354.866L386.239 354.937Z" fill="#1D3B54"/>
</svg>
