<svg width="74" height="75" viewBox="0 0 74 75" fill="none" xmlns="http://www.w3.org/2000/svg">
<circle cx="37" cy="37.0242" r="37" fill="#8EBD00" fill-opacity="0.1"/>
<path d="M40.6622 40.5374H34.6824C34.3529 40.5374 34.0845 40.8058 34.0845 41.1353V42.9292C34.0845 43.2587 34.3529 43.5272 34.6824 43.5272H37.4248L39.0435 41.9085C39.2774 41.6747 39.6553 41.6747 39.8891 41.9085C40.1229 42.1423 40.1229 42.5202 39.8891 42.754L39.1158 43.5273H40.6621C40.9916 43.5273 41.2601 43.2588 41.2601 42.9293V41.1354C41.2602 40.8059 40.9917 40.5374 40.6622 40.5374Z" fill="#8EBD00"/>
<path d="M37.6725 26.7839C37.013 26.7839 36.4766 27.3202 36.4766 27.9799C36.4766 28.4206 36.7187 28.8021 37.0745 29.0096V28.5778C37.0745 28.2478 37.3424 27.9799 37.6725 27.9799C38.0025 27.9799 38.2704 28.2478 38.2704 28.5778V29.0096C38.6262 28.8021 38.8684 28.4206 38.8684 27.9799C38.8685 27.3202 38.3321 26.7839 37.6725 26.7839Z" fill="#8EBD00"/>
<path d="M45.446 20.2061H29.8986C28.2499 20.2061 26.9087 21.5473 26.9087 23.196H48.436C48.436 21.5473 47.0947 20.2061 45.446 20.2061Z" fill="#8EBD00"/>
<path d="M26.9087 47.7134V48.3114C26.9087 49.96 28.2499 51.3013 29.8986 51.3013H30.4966V53.0953C30.4966 53.4253 30.7645 53.6932 31.0945 53.6932V55.4872C31.0945 55.8172 31.3624 56.0851 31.6925 56.0851H34.0844C34.4145 56.0851 34.6824 55.8172 34.6824 55.4872V53.6932C35.0125 53.6932 35.2804 53.4253 35.2804 53.0953V51.3013H40.0642V53.0953C40.0642 53.4253 40.3321 53.6932 40.6622 53.6932V55.4872C40.6622 55.8172 40.9301 56.0851 41.2601 56.0851H43.652C43.9821 56.0851 44.25 55.8172 44.25 55.4872V53.6932C44.58 53.6932 44.8479 53.4253 44.8479 53.0953V51.3013H45.4459C47.0945 51.3013 48.4358 49.9601 48.4358 48.3114V47.7134H26.9087ZM34.0844 52.4973H31.6926V51.3013H34.0844V52.4973ZM43.6521 52.4973H41.2602V51.3013H43.6521V52.4973Z" fill="#8EBD00"/>
<path d="M26.9087 24.3918V46.5171H48.436V24.3918H26.9087ZM37.6723 25.5878C38.9915 25.5878 40.0642 26.6606 40.0642 27.9797C40.0642 29.2988 38.9915 30.3717 37.6723 30.3717C36.3532 30.3717 35.2804 29.2989 35.2804 27.9798C35.2804 26.6607 36.3532 25.5878 37.6723 25.5878ZM42.4562 42.9293C42.4562 43.9183 41.6513 44.7232 40.6623 44.7232H34.6825C33.6934 44.7232 32.8885 43.9183 32.8885 42.9293V41.1353C32.8885 40.1463 33.6934 39.3414 34.6825 39.3414H40.6623C41.6513 39.3414 42.4562 40.1463 42.4562 41.1353V42.9293Z" fill="#8EBD00"/>
</svg>
