<svg width="38" height="25" viewBox="0 0 38 25" fill="none" xmlns="http://www.w3.org/2000/svg">
<path d="M8.57973 24.6682C13.4314 24.6682 17.2623 20.7345 17.2623 15.8828C17.2623 11.0312 13.2776 7.09748 8.42591 7.09748C8.37737 7.09748 8.30416 7.10406 8.25563 7.10489C10.1739 5.57732 12.5833 4.65683 15.2206 4.65683C16.4339 4.65683 17.4103 3.673 17.4103 2.46049C17.4103 1.24798 16.6297 0.264149 15.4164 0.264149C6.80456 0.264972 1.91006e-05 7.27105 1.8143e-05 15.8828C1.81428e-05 15.8845 1.81426e-05 15.8861 1.81424e-05 15.8886C1.76032e-05 20.7378 3.72968 24.6682 8.57973 24.6682Z" fill="#D4D4D4"/>
<path d="M29.1571 24.6682C34.0087 24.6682 37.8462 20.7345 37.8462 15.8828C37.8462 11.0312 33.8648 7.09748 29.0123 7.09748C28.9637 7.09748 28.8922 7.10406 28.8436 7.10489C30.7619 5.57732 33.1722 4.65683 35.8094 4.65683C37.0228 4.65683 38 3.673 38 2.46049C38 1.24798 37.207 0.264149 35.9937 0.264149C27.3819 0.264972 20.565 7.27105 20.565 15.8828C20.565 15.8845 20.565 15.8861 20.565 15.8886C20.565 20.7378 24.307 24.6682 29.1571 24.6682Z" fill="#D4D4D4"/>
</svg>
