<svg width="40" height="40" viewBox="0 0 40 40" fill="none" xmlns="http://www.w3.org/2000/svg">
<path d="M34.6104 0H5.391C2.4142 0 0.000915527 2.41318 0.000915527 5.39008V34.6097C0.000915527 37.5866 2.4141 39.9998 5.391 39.9998H19.8019L19.8265 25.706H16.1129C15.6303 25.706 15.2386 25.3158 15.2368 24.8332L15.219 20.2257C15.2171 19.7405 15.61 19.3462 16.0952 19.3462H19.802V14.8942C19.802 9.72768 22.9574 6.91449 27.5662 6.91449H31.3481C31.832 6.91449 32.2244 7.30677 32.2244 7.79074V11.6758C32.2244 12.1596 31.8323 12.5517 31.3486 12.552L29.0277 12.5531C26.5213 12.5531 26.0359 13.7441 26.0359 15.492V19.3463H31.5434C32.0682 19.3463 32.4753 19.8045 32.4135 20.3256L31.8674 24.9331C31.8152 25.374 31.4413 25.7062 30.9973 25.7062H26.0605L26.0359 40H34.6106C37.5874 40 40.0006 37.5868 40.0006 34.61V5.39008C40.0005 2.41318 37.5873 0 34.6104 0Z" fill="#3B5998"/>
</svg>
