<svg width="74" height="75" viewBox="0 0 74 75" fill="none" xmlns="http://www.w3.org/2000/svg">
<circle cx="37" cy="37.0242" r="37" fill="#8EBD00" fill-opacity="0.1"/>
<path d="M17.0198 25.5206H56.9797C58.2036 25.5206 59.1997 26.5166 59.1997 27.7405V42.5405C59.1997 43.7645 58.2036 44.7605 56.9797 44.7605H17.0198C15.7958 44.7605 14.7998 43.7644 14.7998 42.5405V27.7405C14.7997 26.5166 15.7958 25.5206 17.0198 25.5206ZM39.9597 30.7006H34.0396C33.6304 30.7006 33.2997 31.0313 33.2997 31.4405C33.2997 31.8497 33.6305 32.1805 34.0396 32.1805H39.9597C40.3689 32.1805 40.6996 31.8497 40.6996 31.4405C40.6996 31.0313 40.3689 30.7006 39.9597 30.7006ZM18.4998 41.8005H55.4997C55.909 41.8005 56.2397 41.4697 56.2397 41.0605C56.2397 40.6513 55.9089 40.3206 55.4997 40.3206H18.4998C18.0905 40.3206 17.7598 40.6514 17.7598 41.0605C17.7597 41.4698 18.0905 41.8005 18.4998 41.8005ZM18.4998 38.8406H55.4997C55.909 38.8406 56.2397 38.5098 56.2397 38.1006C56.2397 37.6913 55.9089 37.3606 55.4997 37.3606H18.4998C18.0905 37.3606 17.7598 37.6914 17.7598 38.1006C17.7597 38.5098 18.0905 38.8406 18.4998 38.8406Z" fill="#8EBD00"/>
<path d="M36.6598 50.0237C37.3362 49.6729 37.7402 49.2274 37.7402 48.8308C37.7402 48.4341 37.3362 47.9879 36.6598 47.6371C36.2972 47.4492 36.1552 47.003 36.3432 46.6404C36.5311 46.2777 36.9781 46.1349 37.3406 46.3237C38.5527 46.9519 39.2202 47.8421 39.2202 48.8308C39.2202 49.8195 38.5527 50.7097 37.3406 51.3372C36.6643 51.688 36.2603 52.1342 36.2603 52.5309C36.2603 52.9275 36.6643 53.373 37.3406 53.7237C37.7033 53.9117 37.8453 54.3579 37.6573 54.7212C37.5256 54.975 37.2674 55.1208 36.9995 55.1208C36.8855 55.1208 36.7678 55.0941 36.6598 55.0372C35.4477 54.4096 34.7802 53.5194 34.7802 52.5308C34.7802 51.5421 35.4477 50.6519 36.6598 50.0237Z" fill="#8EBD00"/>
<path d="M44.7995 51.5034C45.4759 51.1526 45.8799 50.7072 45.8799 50.3106C45.8799 49.9139 45.4758 49.4677 44.7995 49.1169C44.4369 48.929 44.2948 48.4828 44.4828 48.1202C44.6708 47.7575 45.1185 47.614 45.4803 47.8035C46.6924 48.4317 47.3599 49.3219 47.3599 50.3106C47.3599 51.2993 46.6924 52.1894 45.4803 52.817C44.8039 53.1678 44.3999 53.614 44.3999 54.0106C44.3999 54.4073 44.804 54.8528 45.4803 55.2035C45.8429 55.3915 45.9849 55.8377 45.797 56.201C45.6653 56.4548 45.407 56.6005 45.1391 56.6005C45.0251 56.6005 44.9075 56.5739 44.7994 56.517C43.5873 55.8894 42.9198 54.9992 42.9198 54.0106C42.9198 53.0219 43.5874 52.1317 44.7995 51.5034Z" fill="#8EBD00"/>
<path d="M28.5192 51.5034C29.1956 51.1526 29.5996 50.7072 29.5996 50.3106C29.5996 49.9139 29.1955 49.4677 28.5192 49.1169C28.1566 48.929 28.0146 48.4828 28.2025 48.1202C28.3905 47.7575 28.8382 47.614 29.2 47.8035C30.4121 48.4317 31.0796 49.3219 31.0796 50.3106C31.0796 51.2993 30.4121 52.1894 29.2 52.817C28.5236 53.1678 28.1197 53.614 28.1197 54.0106C28.1197 54.4073 28.5237 54.8528 29.2 55.2035C29.5626 55.3915 29.7047 55.8377 29.5167 56.201C29.385 56.4548 29.1268 56.6005 28.8588 56.6005C28.7448 56.6005 28.6272 56.5739 28.5191 56.517C27.3071 55.8894 26.6396 54.9992 26.6396 54.0106C26.6396 53.0219 27.3071 52.1317 28.5192 51.5034Z" fill="#8EBD00"/>
</svg>
