<svg width="74" height="75" viewBox="0 0 74 75" fill="none" xmlns="http://www.w3.org/2000/svg">
<circle cx="37" cy="37.0242" r="37" fill="#8EBD00" fill-opacity="0.1"/>
<path d="M40.096 30.2547V28.889H21.3037V56.2022H33.3845V30.9375C33.3845 30.5604 33.6849 30.2547 34.0556 30.2547H40.096ZM23.9883 34.3517C23.9883 34.7288 23.6879 35.0345 23.3172 35.0345C22.9465 35.0345 22.646 34.7288 22.646 34.3517V30.2547C22.646 29.8775 22.9465 29.5719 23.3172 29.5719C23.6879 29.5719 23.9883 29.8775 23.9883 30.2547V34.3517Z" fill="#8EBD00"/>
<path d="M53.5189 35.7175H34.7266V56.2023H53.5189V35.7175ZM44.1227 54.1539C40.0452 54.1539 36.74 50.7909 36.74 46.6427C36.74 42.4945 40.0452 39.1316 44.1227 39.1316C48.2 39.1316 51.5054 42.4945 51.5054 46.6427C51.5004 50.7891 48.1981 54.1488 44.1227 54.1539Z" fill="#8EBD00"/>
<path d="M44.1224 40.4971C40.7863 40.4971 38.082 43.2485 38.082 46.6426C38.082 50.0367 40.7863 52.7881 44.1224 52.7881C47.4585 52.7881 50.1628 50.0367 50.1628 46.6426C50.1591 43.2501 47.457 40.5009 44.1224 40.4971ZM44.1224 42.7729C42.0227 42.7753 40.3212 44.5064 40.3189 46.6426C40.3189 47.0198 40.0184 47.3254 39.6477 47.3254C39.2773 47.3254 38.9766 47.0198 38.9766 46.6426C38.9797 43.7526 41.2818 41.4104 44.1224 41.4072C44.4931 41.4072 44.7936 41.7132 44.7936 42.09C44.7936 42.4672 44.4931 42.7729 44.1224 42.7729Z" fill="#8EBD00"/>
<path d="M40.097 17.9636H21.3047V27.5232H40.097V17.9636ZM23.9893 26.1576C23.9893 26.5347 23.6889 26.8404 23.3181 26.8404C22.9474 26.8404 22.647 26.5347 22.647 26.1576V22.0606C22.647 21.6834 22.9474 21.3778 23.3181 21.3778C23.6889 21.3778 23.9893 21.6834 23.9893 22.0606V26.1576Z" fill="#8EBD00"/>
<path d="M53.5186 31.6202H38.082V34.3515H53.5186V31.6202ZM41.4378 33.6687H40.0955C39.7248 33.6687 39.4243 33.363 39.4243 32.9858C39.4243 32.6087 39.7248 32.303 40.0955 32.303H41.4378C41.8085 32.303 42.109 32.6087 42.109 32.9858C42.109 33.363 41.8085 33.6687 41.4378 33.6687ZM44.7936 33.6687H43.4513C43.0806 33.6687 42.7801 33.363 42.7801 32.9858C42.7801 32.6087 43.0806 32.303 43.4513 32.303H44.7936C45.1643 32.303 45.4647 32.6087 45.4647 32.9858C45.4647 33.363 45.1643 33.6687 44.7936 33.6687Z" fill="#8EBD00"/>
<path d="M34.7266 31.6202H36.74V34.3515H34.7266V31.6202Z" fill="#8EBD00"/>
</svg>
