<svg width="40" height="40" viewBox="0 0 40 40" fill="none" xmlns="http://www.w3.org/2000/svg">
<path d="M19.9999 0C31.0462 0 40 8.95499 40 20.0001C40 31.0451 31.0462 40 19.9999 40C8.95362 40 0 31.045 0 20.0001C0 8.95513 8.95376 0 19.9999 0Z" fill="#C4302B"/>
<path d="M19.5174 16.2513C20.1498 16.2513 20.645 16.05 21.0074 15.7638C21.3675 15.4763 21.5475 15.0851 21.5475 14.5826V11.55C21.5475 11.1038 21.3638 10.735 20.9974 10.4513C20.6286 10.1675 20.1574 10.0263 19.5799 10.0263C18.9487 10.0263 18.4437 10.1601 18.0699 10.4288C17.6949 10.6987 17.5074 11.0587 17.5074 11.515V14.5574C17.5074 15.0574 17.6898 15.4524 18.0548 15.7487C18.4198 16.045 18.9087 16.2513 19.5174 16.2513ZM18.8563 11.6626C18.8563 11.5476 18.9163 11.4551 19.035 11.3814C19.155 11.3101 19.3101 11.2751 19.5001 11.2751C19.7076 11.2751 19.8751 11.3101 20.0014 11.3814C20.129 11.4551 20.1914 11.5477 20.1914 11.6626V14.5451C20.1914 14.6876 20.129 14.8001 20.0039 14.8814C19.8789 14.9614 19.7114 15.0026 19.5001 15.0026C19.2939 15.0026 19.1339 14.9639 19.0225 14.8826C18.9126 14.8038 18.8563 14.6913 18.8563 14.5451V11.6626ZM23.7025 16.2476C23.9249 16.2476 24.1512 16.12 24.3863 15.9926C24.6238 15.8625 24.85 15.6725 25.0676 15.4251V16.0989H26.2488V10.0175H25.0676V14.6338C24.9576 14.7651 24.8351 14.8738 24.7039 14.96C24.5701 15.045 24.4602 15.0888 24.3739 15.0888C24.2627 15.0888 24.1814 15.0575 24.1339 14.9913C24.0839 14.9276 24.0565 14.8238 24.0565 14.6813V10.0188H22.8777V15.1001C22.8777 15.4626 22.949 15.7339 23.0852 15.9139C23.2237 16.095 23.4287 16.2476 23.7025 16.2476ZM27.1375 18.7614H12.8624C10.5925 18.7614 8.75366 20.5301 8.75366 22.7089V26.0464C8.75366 28.2264 10.5925 29.9952 12.8624 29.9952H27.1374C29.4061 29.9952 31.2461 28.2264 31.2461 26.0464V22.7089C31.2463 20.53 29.4062 18.7614 27.1375 18.7614ZM14.9861 22.1489H13.7237V27.3764H12.5025V22.1489H11.24V21.2576H14.9863C14.9861 21.2576 14.9861 22.1489 14.9861 22.1489ZM18.7537 27.4489H17.4375V26.9064C17.1925 27.1064 16.9413 27.2601 16.6762 27.3627C16.415 27.4702 16.16 27.5214 15.9125 27.5214C15.6076 27.5214 15.3801 27.4476 15.2251 27.2989C15.0725 27.1527 14.9938 26.9327 14.9938 26.6389V22.5115H16.3101V26.2977C16.3101 26.4152 16.3375 26.4978 16.3901 26.5502C16.4476 26.6039 16.5388 26.6277 16.6614 26.6277C16.7564 26.6277 16.8814 26.5939 17.0289 26.5238C17.1776 26.4551 17.3139 26.3676 17.4376 26.2588V22.5101H18.7538C18.7537 22.5101 18.7537 27.4489 18.7537 27.4489ZM23.7361 26.5089C23.7361 26.8327 23.6336 27.0788 23.4299 27.2527C23.2287 27.4264 22.9312 27.5114 22.5475 27.5114C22.2913 27.5114 22.0637 27.4788 21.8662 27.4126C21.6675 27.3465 21.4799 27.2439 21.3099 27.1026V27.4526H19.9962V21.2576H21.3099V23.2539C21.4875 23.1164 21.6737 23.0089 21.8674 22.9364C22.0661 22.8627 22.2661 22.8277 22.4674 22.8277C22.8787 22.8277 23.1924 22.9239 23.4087 23.1177C23.6274 23.3127 23.7361 23.5989 23.7361 23.9727C23.7361 23.9726 23.7361 26.5089 23.7361 26.5089ZM28.7437 25.1151H26.3187V26.0076C26.3187 26.2564 26.3587 26.4288 26.4424 26.5263C26.5274 26.6226 26.6712 26.6701 26.8725 26.6701C27.085 26.6701 27.23 26.6289 27.315 26.5476C27.3976 26.4651 27.4426 26.2863 27.4426 26.0063V25.7913H28.7463V26.0338C28.7463 26.5188 28.5901 26.8839 28.2675 27.1301C27.9501 27.375 27.475 27.4975 26.8438 27.4975C26.2751 27.4975 25.8276 27.3675 25.5014 27.1075C25.1763 26.8501 25.0113 26.4901 25.0113 26.035V23.9075C25.0113 23.4987 25.1913 23.1612 25.5513 22.9025C25.9101 22.6451 26.3701 22.5163 26.9388 22.5163C27.5188 22.5163 27.965 22.6363 28.2776 22.8751C28.5888 23.1138 28.7438 23.4588 28.7438 23.9064C28.7437 23.9064 28.7437 25.1151 28.7437 25.1151ZM14.2787 16.2651H15.77V12.6313L17.5063 7.50635H15.99L15.0674 11.0089H14.9724L14.005 7.50635H12.5012L14.2786 12.7951C14.2787 12.7951 14.2787 16.2651 14.2787 16.2651ZM21.8537 23.5525L21.5774 23.5976L21.3087 23.7364V26.5839C21.4137 26.6576 21.5174 26.7139 21.6175 26.7451L21.9312 26.7938C22.0912 26.7938 22.2075 26.7625 22.2825 26.6963C22.3562 26.6326 22.3949 26.5276 22.3949 26.3838V24.0225C22.3949 23.8663 22.3511 23.75 22.2587 23.6713C22.1637 23.5926 22.03 23.5525 21.8537 23.5525Z" fill="white"/>
<path d="M26.9426 23.345C26.7401 23.345 26.5963 23.3875 26.5076 23.475C26.4201 23.5588 26.3776 23.7013 26.3776 23.8999V24.3775H27.4988V23.8999C27.4988 23.7013 27.4525 23.56 27.3651 23.475C27.2787 23.3875 27.1351 23.345 26.9426 23.345Z" fill="white"/>
</svg>
