<svg width="74" height="75" viewBox="0 0 74 75" fill="none" xmlns="http://www.w3.org/2000/svg">
<circle cx="37" cy="37.0242" r="37" fill="#8EBD00" fill-opacity="0.1"/>
<path d="M49.6131 47.8717C49.9381 47.8717 50.2017 47.6081 50.2017 47.283C50.2017 46.9579 49.9381 46.6944 49.6131 46.6944C49.288 46.6944 49.0244 46.9579 49.0244 47.283C49.0244 47.6081 49.288 47.8717 49.6131 47.8717Z" fill="#8EBD00"/>
<path d="M44.3152 33.1558H23.1243C22.7992 33.1558 22.5356 33.4194 22.5356 33.7445V49.049C22.5356 49.3741 22.7992 49.6376 23.1243 49.6376H44.3152C44.6403 49.6376 44.9038 49.3741 44.9038 49.049V33.7445C44.9038 33.4194 44.6403 33.1558 44.3152 33.1558Z" fill="#8EBD00"/>
<path d="M49.6131 43.1626C49.9381 43.1626 50.2017 42.8991 50.2017 42.574C50.2017 42.2489 49.9381 41.9854 49.6131 41.9854C49.288 41.9854 49.0244 42.2489 49.0244 42.574C49.0244 42.8991 49.288 43.1626 49.6131 43.1626Z" fill="#8EBD00"/>
<path d="M25.4795 53.1694H23.125V53.7581C23.125 53.9142 23.187 54.0639 23.2974 54.1743C23.4078 54.2847 23.5575 54.3467 23.7136 54.3467H24.8909C25.047 54.3467 25.1967 54.2847 25.3071 54.1743C25.4175 54.0639 25.4795 53.9142 25.4795 53.7581V53.1694Z" fill="#8EBD00"/>
<path d="M30.7771 29.0353H29.5999C29.4438 29.0353 29.294 29.0973 29.1836 29.2077C29.0732 29.3181 29.0112 29.4678 29.0112 29.6239H38.4294C38.4294 29.4678 38.3674 29.3181 38.257 29.2077C38.1466 29.0973 37.9969 29.0353 37.8408 29.0353H30.7771Z" fill="#8EBD00"/>
<path d="M50.2017 53.1694H47.8472V53.7581C47.8472 53.9142 47.9092 54.0639 48.0196 54.1743C48.13 54.2847 48.2797 54.3467 48.4358 54.3467H49.6131C49.7692 54.3467 49.9189 54.2847 50.0293 54.1743C50.1397 54.0639 50.2017 53.9142 50.2017 53.7581V53.1694Z" fill="#8EBD00"/>
<path d="M20.1816 31.3899V51.4035C20.1816 51.5597 20.2437 51.7094 20.354 51.8198C20.4644 51.9302 20.6142 51.9922 20.7703 51.9922H52.5566C52.7128 51.9922 52.8625 51.9302 52.9729 51.8198C53.0833 51.7094 53.1453 51.5597 53.1453 51.4035V31.3899C53.1453 31.2338 53.0833 31.0841 52.9729 30.9737C52.8625 30.8633 52.7128 30.8013 52.5566 30.8013H20.7703C20.6142 30.8013 20.4644 30.8633 20.354 30.9737C20.2437 31.0841 20.1816 31.2338 20.1816 31.3899ZM50.2021 33.1558H51.3794V34.3331H50.2021V33.1558ZM50.2021 34.9217H51.3794V36.099H50.2021V34.9217ZM50.2021 36.6876H51.3794V37.8649H50.2021V36.6876ZM50.2021 38.4535H51.3794V39.6308H50.2021V38.4535ZM47.8476 33.1558H49.0248V34.3331H47.8476V33.1558ZM47.8476 34.9217H49.0248V36.099H47.8476V34.9217ZM47.8476 36.6876H49.0248V37.8649H47.8476V36.6876ZM47.8476 38.4535H49.0248V39.6308H47.8476V38.4535ZM47.2589 41.9854H47.9559C48.0757 41.6413 48.2997 41.343 48.5967 41.132C48.8938 40.9209 49.2491 40.8075 49.6135 40.8075C49.9778 40.8075 50.3332 40.9209 50.6302 41.132C50.9272 41.343 51.1512 41.6413 51.2711 41.9854H51.968V43.1626H51.2711C51.1512 43.5067 50.9272 43.805 50.6302 44.016C50.3332 44.2271 49.9778 44.3405 49.6135 44.3405C49.2491 44.3405 48.8938 44.2271 48.5967 44.016C48.2997 43.805 48.0757 43.5067 47.9559 43.1626H47.2589V41.9854ZM47.2589 46.6945H47.9559C48.0757 46.3504 48.2997 46.0521 48.5967 45.8411C48.8938 45.63 49.2491 45.5166 49.6135 45.5166C49.9778 45.5166 50.3332 45.63 50.6302 45.8411C50.9272 46.0521 51.1512 46.3504 51.2711 46.6945H51.968V47.8717H51.2711C51.1512 48.2158 50.9272 48.5141 50.6302 48.7251C50.3332 48.9362 49.9778 49.0496 49.6135 49.0496C49.2491 49.0496 48.8938 48.9362 48.5967 48.7251C48.2997 48.5141 48.0757 48.2158 47.9559 47.8717H47.2589V46.6945ZM21.3589 33.7445C21.3589 33.2761 21.545 32.8269 21.8761 32.4958C22.2073 32.1646 22.6565 31.9785 23.1248 31.9785H44.3157C44.7841 31.9785 45.2332 32.1646 45.5644 32.4958C45.8956 32.8269 46.0816 33.2761 46.0816 33.7445V49.049C46.0816 49.5173 45.8956 49.9665 45.5644 50.2977C45.2332 50.6289 44.7841 50.8149 44.3157 50.8149H23.1248C22.6565 50.8149 22.2073 50.6289 21.8761 50.2977C21.545 49.9665 21.3589 49.5173 21.3589 49.049V33.7445Z" fill="#8EBD00"/>
<path d="M45.9862 20.4736C45.901 20.3428 45.7675 20.2512 45.6148 20.2188C45.4622 20.1865 45.3029 20.2161 45.1721 20.3011L33.7443 27.7291L27.0097 22.678C26.9478 22.6317 26.8775 22.5979 26.8026 22.5787C26.7277 22.5595 26.6498 22.5553 26.5733 22.5662C26.4967 22.5772 26.4231 22.603 26.3566 22.6424C26.2901 22.6818 26.232 22.7339 26.1856 22.7958C26.1392 22.8576 26.1055 22.928 26.0863 23.0029C26.0671 23.0777 26.0629 23.1557 26.0738 23.2322C26.0959 23.3867 26.1784 23.5262 26.3033 23.6198L33.367 28.9176C33.3758 28.924 33.3858 28.9258 33.3946 28.9317C33.4299 28.9556 33.4678 28.9753 33.5076 28.9906C33.5232 28.9977 33.5391 29.004 33.5553 29.0094C33.6073 29.0251 33.6612 29.0336 33.7154 29.0347H33.7201C33.7991 29.0327 33.8768 29.0147 33.9485 28.9817C33.9651 28.9752 33.9812 28.9678 33.9968 28.9594C34.0117 28.9535 34.0262 28.9469 34.0404 28.9394L45.8131 21.2871C45.9438 21.2021 46.0354 21.0686 46.0679 20.9161C46.1003 20.7636 46.0709 20.6045 45.9862 20.4736Z" fill="#8EBD00"/>
</svg>
