<svg width="231" height="53" viewBox="0 0 231 53" fill="none" xmlns="http://www.w3.org/2000/svg">
<path d="M65.9726 31.8C65.2047 31.2253 64.1169 30.6506 62.5172 30.6506C58.9338 30.6506 56.3102 33.4602 56.3102 37.2916C56.3102 41.1229 58.9978 43.9325 62.6452 43.9325C63.9249 43.9325 65.0767 43.5494 66.0366 42.7831V43.6133H69.108V25.9253H65.9726V31.8ZM62.8371 40.9952C60.7895 40.9952 59.5097 39.5904 59.5097 37.3554C59.5097 35.1205 60.7895 33.6518 62.7731 33.6518C64.7568 33.6518 66.1006 35.1205 66.1006 37.3554C66.0366 39.0795 65.0767 40.9952 62.8371 40.9952Z" fill="white"/>
<path d="M74.995 30.97H71.8596V43.6772H74.995V30.97Z" fill="white"/>
<path d="M73.4593 26.3723C72.3715 26.3723 71.5396 27.2024 71.5396 28.288C71.5396 29.4374 72.3715 30.2675 73.4593 30.2675C74.6111 30.2675 75.4429 29.4374 75.4429 28.288C75.4429 27.2024 74.6111 26.3723 73.4593 26.3723Z" fill="white"/>
<path d="M86.385 39.0794C86.0651 40.2288 84.9133 40.9951 83.5055 40.9951C81.5219 40.9951 80.1141 39.4626 80.1141 37.2915C80.1141 35.1204 81.5219 33.5879 83.5055 33.5879C84.8493 33.5879 86.0011 34.3541 86.385 35.5674L86.513 36.0782H89.7125L89.5205 35.2481C88.8806 32.5023 86.449 30.7144 83.4415 30.7144C79.7302 30.7144 76.9147 33.5879 76.9147 37.3553C76.9147 41.1228 79.7302 43.9963 83.4415 43.9963C86.385 43.9963 88.8806 42.1445 89.5205 39.4626L89.7125 38.6324H86.513L86.385 39.0794Z" fill="white"/>
<path d="M97.6471 30.6506C96.4953 30.6506 95.4715 30.9699 94.7036 31.5446V25.9253H91.5681V43.6771H94.7036V36.0783C94.7036 34.6735 95.7914 33.6518 97.2632 33.6518C98.415 33.6518 99.5668 34.4181 99.5668 35.9506V43.6771H102.702V35.8229C102.638 32.8217 100.527 30.6506 97.6471 30.6506Z" fill="white"/>
<path d="M110.125 39.0158L107.117 30.97H103.79L108.781 43.6772H111.533L116.524 30.97H113.132L110.125 39.0158Z" fill="white"/>
<path d="M125.546 38.4411C125.546 39.9097 124.458 40.9953 123.051 40.9953C121.963 40.9953 120.811 40.229 120.811 38.6965V30.97H117.676V38.8242C117.676 41.8892 119.723 43.9965 122.603 43.9965C123.819 43.9965 124.778 43.6133 125.482 43.1025V43.7411H128.618V30.97H125.482V38.4411H125.546Z" fill="white"/>
<path d="M73.4593 26.3723C72.3715 26.3723 71.5396 27.2024 71.5396 28.288C71.5396 29.4374 72.3715 30.2675 73.4593 30.2675C74.6111 30.2675 75.4429 29.4374 75.4429 28.288C75.4429 27.2024 74.6111 26.3723 73.4593 26.3723Z" fill="white"/>
<path d="M137.96 30.6506C136.424 30.6506 135.273 31.2253 134.505 31.8V25.9253H131.369V43.6771H134.441V42.847C135.401 43.6132 136.552 43.9964 137.832 43.9964C141.543 43.9964 144.167 41.1867 144.167 37.3554C144.167 33.4602 141.543 30.6506 137.96 30.6506ZM137.768 33.6518C139.688 33.6518 141.032 35.1205 141.032 37.3554C141.032 39.5904 139.752 41.059 137.704 41.059C135.465 41.059 134.441 39.1434 134.441 37.3554C134.441 35.0566 135.72 33.6518 137.768 33.6518Z" fill="#349A1B"/>
<path d="M152.038 30.6506C148.262 30.6506 145.383 33.5241 145.383 37.2916C145.383 41.0591 148.198 43.9326 151.974 43.9326C155.749 43.9326 158.629 41.0591 158.629 37.2916C158.629 33.5241 155.813 30.6506 152.038 30.6506ZM152.038 40.9952C149.99 40.9952 148.582 39.4627 148.582 37.2916C148.582 35.1844 150.054 33.588 152.038 33.588C154.085 33.588 155.493 35.1205 155.493 37.2916C155.493 39.4627 154.085 40.9952 152.038 40.9952Z" fill="#349A1B"/>
<path d="M166.819 30.6506C165.603 30.6506 164.643 31.0338 163.94 31.5446V30.9061H160.804V43.6133H163.94V36.2061C163.94 34.7374 165.027 33.6518 166.435 33.6518C167.523 33.6518 168.675 34.4181 168.675 35.9506V43.6771H171.81V35.8229C171.746 32.8217 169.699 30.6506 166.819 30.6506Z" fill="#349A1B"/>
<path d="M187.743 30.6506C186.144 30.6506 184.928 31.1615 184.032 32.247C183.2 31.2253 181.857 30.6506 180.385 30.6506C179.297 30.6506 178.401 30.9699 177.633 31.5446V30.9699H174.498V43.6771H177.633V36.1422C177.633 34.6735 178.593 33.6518 179.873 33.6518C181.153 33.6518 181.984 34.5458 181.984 35.8868V43.6771H185.12V36.2061C185.12 34.2904 186.336 33.6518 187.424 33.6518C188.767 33.6518 189.471 34.482 189.471 36.2061V43.6771H192.607V35.6314C192.607 32.694 190.559 30.6506 187.743 30.6506Z" fill="#349A1B"/>
<path d="M202.973 38.4411C202.973 39.9097 201.885 40.9953 200.477 40.9953C199.389 40.9953 198.238 40.229 198.238 38.6965V30.97H195.102V38.8242C195.102 41.8892 197.15 43.9965 200.029 43.9965C201.245 43.9965 202.205 43.6133 202.909 43.1025V43.7411H206.044V30.97H202.909V38.4411H202.973Z" fill="#349A1B"/>
<path d="M217.626 30.9698V31.8638C216.858 31.2891 215.771 30.7144 214.171 30.7144C210.588 30.7144 207.964 33.524 207.964 37.3553C207.964 41.1866 210.652 43.9963 214.299 43.9963C215.579 43.9963 216.73 43.6132 217.69 42.8469V43.677H220.762V30.9698H217.626ZM214.427 40.9951C212.443 40.9951 211.099 39.5264 211.099 37.2915C211.099 35.0565 212.379 33.5879 214.363 33.5879C216.347 33.5879 217.69 35.0565 217.69 37.2915C217.69 39.0794 216.666 40.9951 214.427 40.9951Z" fill="#349A1B"/>
<path d="M32.6343 45.5928C28.603 45.5289 25.7875 45.5928 22.7161 45.5289C21.9482 45.4012 21.1803 45.2096 20.4125 44.9542C19.1967 43.4855 20.4125 39.7181 25.5956 36.4614C34.2341 47.7 57.59 27.4578 41.2729 15.3891C30.4587 7.34336 23.4839 20.306 19.4526 18.3903C18.0449 17.6879 13.9496 9.96143 26.4914 6.76866C37.1136 4.02287 44.9202 7.47107 49.3994 13.0903C51.2551 16.2193 52.2789 19.859 52.2789 23.6265C52.2789 34.4819 43.8324 43.5494 32.6343 45.5928Z" fill="url(#paint0_linear)"/>
<path d="M53.6227 25.9893C54.0067 14.5592 44.0884 2.23507 26.4274 6.70495C13.8856 9.89772 17.9809 17.6242 19.3886 18.3266C23.4199 20.2423 30.3947 7.27965 41.2089 15.3254C57.526 27.458 35.3219 45.5929 25.5316 36.3977C19.5806 40.229 18.8127 44.5712 21.0524 45.4652C25.0837 45.5929 28.2191 45.5291 33.4662 45.5929C45.2402 45.7206 53.2388 37.611 53.6227 25.9893Z" fill="url(#paint1_linear)"/>
<path d="M23.4839 22.3494C16.6371 28.0326 18.8767 42.4 18.8767 42.4C19.0687 44.2519 20.2845 45.5928 22.0762 45.5928H33.5302C30.2028 45.0181 18.8767 36.5253 31.8665 30.1398C31.8665 30.1398 38.7133 27.9049 35.1939 22.2217C32.5064 17.8796 26.6194 19.7314 23.4839 22.3494Z" fill="url(#paint2_linear)"/>
<path d="M44.9838 31.6724C47.9273 26.6916 47.9273 20.3061 41.2085 15.3254C30.3943 7.27959 23.4195 20.2422 19.3882 18.3266C17.9805 17.6242 13.8852 9.89766 26.427 6.70489C37.8171 3.76754 45.9436 7.85429 50.2309 14.2398C50.3589 15.2615 50.4869 16.3471 50.4869 17.4326C50.4869 22.9242 48.4392 27.9049 44.9838 31.6724Z" fill="url(#paint3_linear)"/>
<path d="M41.2089 15.3254C30.3947 7.27963 23.4199 20.2423 19.3886 18.3266C17.9809 17.6242 13.8856 9.8977 26.4274 6.70493C30.1388 5.7471 33.4662 5.55553 36.4737 5.93867C42.8086 8.36517 47.2238 13.8567 47.2238 20.3061C47.2238 21.5194 47.0958 22.6688 46.7759 23.8182C46.392 20.817 44.7283 17.8796 41.2089 15.3254Z" fill="url(#paint4_linear)"/>
<path d="M45.4321 19.923C44.5363 18.3266 43.1285 16.7941 41.2089 15.3254C30.3947 7.27961 23.4199 20.2423 19.3886 18.3266C18.1729 17.7519 14.9094 11.8772 22.2681 8.17358C22.7801 8.17358 23.228 8.17358 23.7399 8.17358C35.3219 8.17358 44.7922 13.3459 45.4321 19.923Z" fill="url(#paint5_linear)"/>
<path d="M31.8025 30.1398C18.8127 36.5253 30.1388 45.0181 33.4662 45.5928H22.0762C20.2845 45.5928 19.0687 44.2518 18.8767 42.4C18.8767 42.4 18.0449 37.0362 18.9407 31.6085C21.5003 27.394 26.6194 24.5205 32.5064 24.5205C33.7222 24.5205 34.9379 24.6482 36.1537 24.9036C36.4737 28.6073 31.8025 30.1398 31.8025 30.1398Z" fill="url(#paint6_linear)"/>
<defs>
<linearGradient id="paint0_linear" x1="18.3253" y1="26.4642" x2="52.3405" y2="24.5512" gradientUnits="userSpaceOnUse">
<stop stop-color="#349A1B"/>
<stop offset="1" stop-color="#8EBD00"/>
</linearGradient>
<linearGradient id="paint1_linear" x1="32.4305" y1="26.4831" x2="43.6177" y2="14.3384" gradientUnits="userSpaceOnUse">
<stop stop-color="#349A1B"/>
<stop offset="1" stop-color="#8EBD00"/>
</linearGradient>
<linearGradient id="paint2_linear" x1="18.7423" y1="49.0855" x2="36.6696" y2="20.2583" gradientUnits="userSpaceOnUse">
<stop stop-color="#8EBD00"/>
<stop offset="1" stop-color="#349A1B"/>
</linearGradient>
<linearGradient id="paint3_linear" x1="23.502" y1="8.70114" x2="66.2978" y2="32.9811" gradientUnits="userSpaceOnUse">
<stop stop-color="#F89F17"/>
<stop offset="1" stop-color="#FCD548"/>
</linearGradient>
<linearGradient id="paint4_linear" x1="20.3296" y1="9.64107" x2="55.3489" y2="21.0904" gradientUnits="userSpaceOnUse">
<stop stop-color="#F89F17"/>
<stop offset="1" stop-color="#FCD548"/>
</linearGradient>
<linearGradient id="paint5_linear" x1="7.70229" y1="15.6343" x2="42.7352" y2="13.4925" gradientUnits="userSpaceOnUse">
<stop stop-color="#F89F17"/>
<stop offset="1" stop-color="#FCD548"/>
</linearGradient>
<linearGradient id="paint6_linear" x1="38.0383" y1="24.8517" x2="18.7296" y2="47.1366" gradientUnits="userSpaceOnUse">
<stop stop-color="#8EBD00"/>
<stop offset="1" stop-color="#349A1B"/>
</linearGradient>
</defs>
</svg>
