<svg width="231" height="53" viewBox="0 0 231 53" fill="none" xmlns="http://www.w3.org/2000/svg">
<path d="M65.9726 31.8C65.2047 31.2253 64.1169 30.6506 62.5172 30.6506C58.9338 30.6506 56.3102 33.4602 56.3102 37.2916C56.3102 41.1229 58.9978 43.9325 62.6452 43.9325C63.9249 43.9325 65.0767 43.5494 66.0366 42.7831V43.6133H69.108V25.9253H65.9726V31.8ZM62.8371 40.9952C60.7895 40.9952 59.5097 39.5904 59.5097 37.3554C59.5097 35.1205 60.7895 33.6518 62.7731 33.6518C64.7568 33.6518 66.1006 35.1205 66.1006 37.3554C66.0366 39.0795 65.0767 40.9952 62.8371 40.9952Z" fill="#1A1A1A"/>
<path d="M74.995 30.9699H71.8596V43.6771H74.995V30.9699Z" fill="#1A1A1A"/>
<path d="M73.4593 26.3723C72.3715 26.3723 71.5396 27.2024 71.5396 28.2879C71.5396 29.4373 72.3715 30.2675 73.4593 30.2675C74.6111 30.2675 75.4429 29.4373 75.4429 28.2879C75.4429 27.2024 74.6111 26.3723 73.4593 26.3723Z" fill="#1A1A1A"/>
<path d="M86.385 39.0795C86.0651 40.2289 84.9133 40.9952 83.5055 40.9952C81.5219 40.9952 80.1141 39.4626 80.1141 37.2916C80.1141 35.1205 81.5219 33.5879 83.5055 33.5879C84.8493 33.5879 86.0011 34.3542 86.385 35.5675L86.513 36.0783H89.7125L89.5205 35.2482C88.8806 32.5024 86.449 30.7144 83.4415 30.7144C79.7302 30.7144 76.9147 33.5879 76.9147 37.3554C76.9147 41.1229 79.7302 43.9964 83.4415 43.9964C86.385 43.9964 88.8806 42.1446 89.5205 39.4626L89.7125 38.6325H86.513L86.385 39.0795Z" fill="#1A1A1A"/>
<path d="M97.6471 30.6506C96.4953 30.6506 95.4715 30.9699 94.7036 31.5446V25.9253H91.5681V43.6771H94.7036V36.0783C94.7036 34.6735 95.7914 33.6518 97.2632 33.6518C98.415 33.6518 99.5668 34.4181 99.5668 35.9506V43.6771H102.702V35.8229C102.638 32.8217 100.527 30.6506 97.6471 30.6506Z" fill="#1A1A1A"/>
<path d="M110.125 39.0157L107.117 30.9699H103.79L108.781 43.6771H111.533L116.524 30.9699H113.132L110.125 39.0157Z" fill="#1A1A1A"/>
<path d="M125.546 38.441C125.546 39.9096 124.458 40.9952 123.051 40.9952C121.963 40.9952 120.811 40.2289 120.811 38.6964V30.9699H117.676V38.8241C117.676 41.8892 119.723 43.9964 122.603 43.9964C123.819 43.9964 124.778 43.6133 125.482 43.1024V43.741H128.618V30.9699H125.482V38.441H125.546Z" fill="#1A1A1A"/>
<path d="M137.96 30.6506C136.424 30.6506 135.273 31.2253 134.505 31.8V25.9253H131.369V43.6771H134.441V42.847C135.401 43.6132 136.552 43.9964 137.832 43.9964C141.543 43.9964 144.167 41.1867 144.167 37.3554C144.167 33.4602 141.543 30.6506 137.96 30.6506ZM137.768 33.6518C139.688 33.6518 141.032 35.1205 141.032 37.3554C141.032 39.5904 139.752 41.059 137.704 41.059C135.465 41.059 134.441 39.1434 134.441 37.3554C134.441 35.0566 135.72 33.6518 137.768 33.6518Z" fill="#349A1B"/>
<path d="M152.038 30.6506C148.262 30.6506 145.383 33.5241 145.383 37.2916C145.383 41.059 148.198 43.9325 151.974 43.9325C155.749 43.9325 158.629 41.059 158.629 37.2916C158.629 33.5241 155.813 30.6506 152.038 30.6506ZM152.038 40.9952C149.99 40.9952 148.582 39.4627 148.582 37.2916C148.582 35.1843 150.054 33.588 152.038 33.588C154.085 33.588 155.493 35.1205 155.493 37.2916C155.493 39.4627 154.085 40.9952 152.038 40.9952Z" fill="#349A1B"/>
<path d="M166.819 30.6506C165.603 30.6506 164.643 31.0337 163.94 31.5446V30.906H160.804V43.6133H163.94V36.206C163.94 34.7374 165.027 33.6518 166.435 33.6518C167.523 33.6518 168.675 34.4181 168.675 35.9506V43.6771H171.81V35.8229C171.746 32.8217 169.699 30.6506 166.819 30.6506Z" fill="#349A1B"/>
<path d="M187.743 30.6506C186.144 30.6506 184.928 31.1614 184.032 32.247C183.2 31.2253 181.857 30.6506 180.385 30.6506C179.297 30.6506 178.401 30.9699 177.633 31.5446V30.9699H174.498V43.6771H177.633V36.1422C177.633 34.6735 178.593 33.6518 179.873 33.6518C181.153 33.6518 181.984 34.5458 181.984 35.8867V43.6771H185.12V36.206C185.12 34.2904 186.336 33.6518 187.424 33.6518C188.767 33.6518 189.471 34.4819 189.471 36.206V43.6771H192.607V35.6313C192.607 32.694 190.559 30.6506 187.743 30.6506Z" fill="#349A1B"/>
<path d="M202.973 38.441C202.973 39.9096 201.885 40.9952 200.477 40.9952C199.389 40.9952 198.238 40.2289 198.238 38.6964V30.9699H195.102V38.8241C195.102 41.8892 197.15 43.9964 200.029 43.9964C201.245 43.9964 202.205 43.6133 202.909 43.1024V43.741H206.044V30.9699H202.909V38.441H202.973Z" fill="#349A1B"/>
<path d="M217.626 30.9699V31.8638C216.858 31.2891 215.771 30.7144 214.171 30.7144C210.588 30.7144 207.964 33.5241 207.964 37.3554C207.964 41.1867 210.652 43.9964 214.299 43.9964C215.579 43.9964 216.73 43.6132 217.69 42.847V43.6771H220.762V30.9699H217.626ZM214.427 40.9952C212.443 40.9952 211.099 39.5265 211.099 37.2916C211.099 35.0566 212.379 33.5879 214.363 33.5879C216.347 33.5879 217.69 35.0566 217.69 37.2916C217.69 39.0795 216.666 40.9952 214.427 40.9952Z" fill="#349A1B"/>
<path d="M73.4593 26.3723C72.3715 26.3723 71.5396 27.2024 71.5396 28.2879C71.5396 29.4373 72.3715 30.2675 73.4593 30.2675C74.6111 30.2675 75.4429 29.4373 75.4429 28.2879C75.4429 27.2024 74.6111 26.3723 73.4593 26.3723Z" fill="#333333"/>
<path d="M65.9726 31.8C65.2047 31.2253 64.1169 30.6506 62.5172 30.6506C58.9978 30.6506 56.4382 33.3325 56.3102 37.1H59.5097C59.5737 34.9928 60.8535 33.6518 62.7731 33.6518C64.6928 33.6518 65.9726 34.9928 66.0366 37.1H69.108V25.9253H65.9726V31.8Z" fill="#333333"/>
<path d="M74.995 30.9699H71.8596V37.1H74.995V30.9699Z" fill="#333333"/>
<path d="M83.3776 30.6506C79.7302 30.6506 76.9787 33.3964 76.8507 37.1H80.0501C80.1141 35.0566 81.5219 33.6518 83.3776 33.6518C84.7213 33.6518 85.8731 34.4181 86.2571 35.6313L86.385 36.1422H89.5845L89.3925 35.3121C88.8166 32.5024 86.385 30.6506 83.3776 30.6506Z" fill="#333333"/>
<path d="M97.6471 30.6506C96.4953 30.6506 95.4715 30.9699 94.7036 31.5446V25.9253H91.5681V37.1H94.7036V36.0783C94.7036 34.6735 95.7914 33.6518 97.2632 33.6518C98.415 33.6518 99.5668 34.4181 99.5668 35.9506V37.1H102.702V35.8867C102.638 32.8217 100.527 30.6506 97.6471 30.6506Z" fill="#333333"/>
<path d="M110.893 37.1H114.092L116.524 30.9699H113.132L110.893 37.1Z" fill="#333333"/>
<path d="M107.117 30.9699H103.79L106.158 37.1H109.421L107.117 30.9699Z" fill="#333333"/>
<path d="M128.682 30.9699H125.546V37.1H128.682V30.9699Z" fill="#333333"/>
<path d="M120.811 30.9699H117.676V37.1H120.811V30.9699Z" fill="#333333"/>
<path d="M137.96 30.6506C136.424 30.6506 135.273 31.2253 134.505 31.8V25.9253H131.369V37.1H134.441C134.505 34.9928 135.784 33.6518 137.704 33.6518C139.56 33.6518 140.84 35.0566 140.968 37.1H144.103C144.039 33.3325 141.48 30.6506 137.96 30.6506Z" fill="#8EBD00"/>
<path d="M152.038 30.6506C148.326 30.6506 145.511 33.3964 145.383 37.1H148.518C148.646 35.0566 150.054 33.6518 151.974 33.6518C153.957 33.6518 155.365 35.0566 155.429 37.1H158.565C158.565 33.3964 155.749 30.6506 152.038 30.6506Z" fill="#8EBD00"/>
<path d="M166.819 30.6506C165.603 30.6506 164.643 31.0337 163.94 31.5446V30.906H160.804V37.0361H163.94V36.1422C163.94 34.6735 165.027 33.588 166.435 33.588C167.523 33.588 168.675 34.3542 168.675 35.8868V37.0361H171.81V35.8229C171.746 32.8217 169.699 30.6506 166.819 30.6506Z" fill="#8EBD00"/>
<path d="M187.743 30.6506C186.144 30.6506 184.928 31.1614 184.032 32.247C183.2 31.2253 181.857 30.6506 180.385 30.6506C179.297 30.6506 178.401 30.9699 177.633 31.5446V30.9699H174.498V37.1H177.633V36.1422C177.633 34.6735 178.593 33.6518 179.873 33.6518C181.153 33.6518 181.984 34.5458 181.984 35.8868V37.1H185.12V36.206C185.12 34.2904 186.336 33.6518 187.424 33.6518C188.767 33.6518 189.471 34.4819 189.471 36.206V37.1H192.607V35.6313C192.607 32.694 190.559 30.6506 187.743 30.6506Z" fill="#8EBD00"/>
<path d="M206.108 30.9699H202.973V37.1H206.108V30.9699Z" fill="#8EBD00"/>
<path d="M198.238 30.9699H195.102V37.1H198.238V30.9699Z" fill="#8EBD00"/>
<path d="M217.626 31.8C216.858 31.2253 215.771 30.6506 214.171 30.6506C210.652 30.6506 208.092 33.3325 207.964 37.1H211.099C211.163 34.9928 212.443 33.6518 214.363 33.6518C216.283 33.6518 217.562 34.9928 217.626 37.1H220.698V30.9699H217.562V31.8H217.626Z" fill="#8EBD00"/>
<path d="M32.6343 45.5928C28.603 45.5289 25.7875 45.5928 22.7161 45.5289C21.9482 45.4012 21.1803 45.2096 20.4125 44.9542C19.1967 43.4855 20.4125 39.7181 25.5956 36.4614C34.2341 47.7 57.59 27.4578 41.2729 15.3891C30.4587 7.34336 23.4839 20.306 19.4526 18.3903C18.0449 17.6879 13.9496 9.96143 26.4914 6.76866C37.1136 4.02287 44.9202 7.47107 49.3994 13.0903C51.2551 16.2193 52.2789 19.859 52.2789 23.6265C52.2789 34.4819 43.8324 43.5494 32.6343 45.5928Z" fill="url(#paint0_linear)"/>
<path d="M53.6227 25.9892C54.0067 14.559 44.0884 2.23495 26.4274 6.70483C13.8856 9.8976 17.9809 17.6241 19.3886 18.3265C23.4199 20.2422 30.3947 7.27953 41.2089 15.3253C57.526 27.4578 35.3219 45.5928 25.5316 36.3976C19.5806 40.2289 18.8127 44.5711 21.0524 45.4651C25.0837 45.5928 28.2191 45.5289 33.4662 45.5928C45.2402 45.7205 53.2388 37.6109 53.6227 25.9892Z" fill="url(#paint1_linear)"/>
<path d="M23.4839 22.3494C16.6371 28.0325 18.8767 42.4 18.8767 42.4C19.0687 44.2518 20.2845 45.5928 22.0762 45.5928H33.5302C30.2028 45.0181 18.8767 36.5253 31.8665 30.1398C31.8665 30.1398 38.7133 27.9048 35.1939 22.2217C32.5064 17.8795 26.6194 19.7313 23.4839 22.3494Z" fill="url(#paint2_linear)"/>
<path d="M44.9838 31.6723C47.9273 26.6916 47.9273 20.306 41.2085 15.3253C30.3943 7.27953 23.4195 20.2422 19.3882 18.3265C17.9805 17.6241 13.8852 9.8976 26.427 6.70483C37.8171 3.76748 45.9436 7.85422 50.2309 14.2398C50.3589 15.2615 50.4869 16.347 50.4869 17.4325C50.4869 22.9241 48.4392 27.9048 44.9838 31.6723Z" fill="url(#paint3_linear)"/>
<path d="M41.2089 15.3253C30.3947 7.27954 23.4199 20.2422 19.3886 18.3265C17.9809 17.6241 13.8856 9.89761 26.4274 6.70484C30.1388 5.74701 33.4662 5.55544 36.4737 5.93857C42.8086 8.36508 47.2238 13.8566 47.2238 20.306C47.2238 21.5193 47.0958 22.6687 46.7759 23.8181C46.392 20.8169 44.7283 17.8795 41.2089 15.3253Z" fill="url(#paint4_linear)"/>
<path d="M45.4321 19.9229C44.5363 18.3265 43.1285 16.794 41.2089 15.3253C30.3947 7.27952 23.4199 20.2422 19.3886 18.3265C18.1729 17.7518 14.9094 11.8771 22.2681 8.17349C22.7801 8.17349 23.228 8.17349 23.7399 8.17349C35.3219 8.17349 44.7922 13.3458 45.4321 19.9229Z" fill="url(#paint5_linear)"/>
<path d="M31.8025 30.1398C18.8127 36.5253 30.1388 45.0181 33.4662 45.5928H22.0762C20.2845 45.5928 19.0687 44.2518 18.8767 42.4C18.8767 42.4 18.0449 37.0362 18.9407 31.6085C21.5003 27.394 26.6194 24.5205 32.5064 24.5205C33.7222 24.5205 34.9379 24.6482 36.1537 24.9036C36.4737 28.6073 31.8025 30.1398 31.8025 30.1398Z" fill="url(#paint6_linear)"/>
<defs>
<linearGradient id="paint0_linear" x1="18.3253" y1="26.4642" x2="52.3405" y2="24.5512" gradientUnits="userSpaceOnUse">
<stop stop-color="#349A1B"/>
<stop offset="1" stop-color="#8EBD00"/>
</linearGradient>
<linearGradient id="paint1_linear" x1="32.4305" y1="26.483" x2="43.6177" y2="14.3383" gradientUnits="userSpaceOnUse">
<stop stop-color="#349A1B"/>
<stop offset="1" stop-color="#8EBD00"/>
</linearGradient>
<linearGradient id="paint2_linear" x1="18.7423" y1="49.0854" x2="36.6696" y2="20.2583" gradientUnits="userSpaceOnUse">
<stop stop-color="#8EBD00"/>
<stop offset="1" stop-color="#349A1B"/>
</linearGradient>
<linearGradient id="paint3_linear" x1="23.502" y1="8.70108" x2="66.2978" y2="32.981" gradientUnits="userSpaceOnUse">
<stop stop-color="#F89F17"/>
<stop offset="1" stop-color="#FCD548"/>
</linearGradient>
<linearGradient id="paint4_linear" x1="20.3296" y1="9.64098" x2="55.3489" y2="21.0903" gradientUnits="userSpaceOnUse">
<stop stop-color="#F89F17"/>
<stop offset="1" stop-color="#FCD548"/>
</linearGradient>
<linearGradient id="paint5_linear" x1="7.70229" y1="15.6342" x2="42.7352" y2="13.4924" gradientUnits="userSpaceOnUse">
<stop stop-color="#F89F17"/>
<stop offset="1" stop-color="#FCD548"/>
</linearGradient>
<linearGradient id="paint6_linear" x1="38.0383" y1="24.8517" x2="18.7296" y2="47.1366" gradientUnits="userSpaceOnUse">
<stop stop-color="#8EBD00"/>
<stop offset="1" stop-color="#349A1B"/>
</linearGradient>
</defs>
</svg>
