<?xml version="1.0" encoding="utf-8"?>
<!-- Generator: Adobe Illustrator 23.0.0, SVG Export Plug-In . SVG Version: 6.00 Build 0)  -->
<svg version="1.1" id="Layer_1" xmlns="http://www.w3.org/2000/svg" xmlns:xlink="http://www.w3.org/1999/xlink" x="0px" y="0px"
	 viewBox="0 0 203.5 40.1" style="enable-background:new 0 0 203.5 40.1;" xml:space="preserve">
<style type="text/css">
	.st0{fill:#FFFFFF;}
	.st1{fill:#349A1B;}
	.st2{fill:url(#SVGID_1_);}
	.st3{fill:url(#SVGID_2_);}
	.st4{fill:url(#SVGID_3_);}
	.st5{fill:url(#SVGID_4_);}
	.st6{fill:url(#SVGID_5_);}
	.st7{fill:url(#SVGID_6_);}
	.st8{fill:url(#SVGID_7_);}
</style>
<path class="st0" d="M48.6,26.2c-0.8-0.6-1.9-1.1-3.5-1.1c-3.6,0-6.2,2.8-6.2,6.6c0,3.8,2.7,6.6,6.3,6.6c1.3,0,2.4-0.4,3.4-1.1V38
	h3.1V20.4h-3.1V26.2z M45.5,35.4c-2,0-3.3-1.4-3.3-3.6c0-2.2,1.3-3.7,3.3-3.7c2,0,3.3,1.5,3.3,3.7C48.7,33.5,47.7,35.4,45.5,35.4z"
	/>
<path class="st0" d="M57.6,25.4h-3.1v12.7h3.1V25.4z"/>
<path class="st0" d="M56.1,20.8c-1.1,0-1.9,0.8-1.9,1.9c0,1.1,0.8,2,1.9,2c1.2,0,2-0.8,2-2C58.1,21.6,57.3,20.8,56.1,20.8z"/>
<path class="st0" d="M69,33.5c-0.3,1.1-1.5,1.9-2.9,1.9c-2,0-3.4-1.5-3.4-3.7s1.4-3.7,3.4-3.7c1.3,0,2.5,0.8,2.9,2l0.1,0.5h3.2
	l-0.2-0.8c-0.6-2.7-3.1-4.5-6.1-4.5c-3.7,0-6.5,2.9-6.5,6.6c0,3.8,2.8,6.6,6.5,6.6c2.9,0,5.4-1.9,6.1-4.5l0.2-0.8h-3.2L69,33.5z"/>
<path class="st0" d="M80.3,25.1c-1.2,0-2.2,0.3-2.9,0.9v-5.6h-3.1v17.8h3.1v-7.6c0-1.4,1.1-2.4,2.6-2.4c1.2,0,2.3,0.8,2.3,2.3v7.7
	h3.1v-7.9C85.3,27.3,83.2,25.1,80.3,25.1z"/>
<path class="st0" d="M92.8,33.4l-3-8h-3.3l5,12.7h2.8l5-12.7h-3.4L92.8,33.4z"/>
<path class="st0" d="M108.2,32.9c0,1.5-1.1,2.6-2.5,2.6c-1.1,0-2.2-0.8-2.2-2.3v-7.7h-3.1v7.9c0,3.1,2,5.2,4.9,5.2
	c1.2,0,2.2-0.4,2.9-0.9v0.6h3.1V25.4h-3.1L108.2,32.9L108.2,32.9z"/>
<path class="st0" d="M56.1,20.8c-1.1,0-1.9,0.8-1.9,1.9c0,1.1,0.8,2,1.9,2c1.2,0,2-0.8,2-2C58.1,21.6,57.3,20.8,56.1,20.8z"/>
<path class="st1" d="M120.6,25.1c-1.5,0-2.7,0.6-3.5,1.1v-5.9H114v17.8h3.1v-0.8c1,0.8,2.1,1.1,3.4,1.1c3.7,0,6.3-2.8,6.3-6.6
	C126.8,27.9,124.2,25.1,120.6,25.1z M120.4,28.1c1.9,0,3.3,1.5,3.3,3.7c0,2.2-1.3,3.7-3.3,3.7c-2.2,0-3.3-1.9-3.3-3.7
	C117.1,29.5,118.4,28.1,120.4,28.1z"/>
<path class="st1" d="M134.7,25.1c-3.8,0-6.7,2.9-6.7,6.6s2.8,6.6,6.6,6.6c3.8,0,6.7-2.9,6.7-6.6S138.5,25.1,134.7,25.1z M134.7,35.4
	c-2,0-3.5-1.5-3.5-3.7c0-2.1,1.5-3.7,3.5-3.7c2,0,3.5,1.5,3.5,3.7S136.7,35.4,134.7,35.4z"/>
<path class="st1" d="M149.5,25.1c-1.2,0-2.2,0.4-2.9,0.9v-0.6h-3.1V38h3.1v-7.4c0-1.5,1.1-2.6,2.5-2.6c1.1,0,2.2,0.8,2.2,2.3v7.7
	h3.1v-7.9C154.4,27.3,152.3,25.1,149.5,25.1z"/>
<path class="st1" d="M170.4,25.1c-1.6,0-2.8,0.5-3.7,1.6c-0.8-1-2.2-1.6-3.6-1.6c-1.1,0-2,0.3-2.8,0.9v-0.6h-3.1v12.7h3.1v-7.5
	c0-1.5,1-2.5,2.2-2.5s2.1,0.9,2.1,2.2v7.8h3.1v-7.5c0-1.9,1.2-2.6,2.3-2.6c1.3,0,2,0.8,2,2.6v7.5h3.1v-8
	C175.2,27.1,173.2,25.1,170.4,25.1z"/>
<path class="st1" d="M185.6,32.9c0,1.5-1.1,2.6-2.5,2.6c-1.1,0-2.2-0.8-2.2-2.3v-7.7h-3.1v7.9c0,3.1,2,5.2,4.9,5.2
	c1.2,0,2.2-0.4,2.9-0.9v0.6h3.1V25.4h-3.1L185.6,32.9L185.6,32.9z"/>
<path class="st1" d="M200.3,25.4v0.9c-0.8-0.6-1.9-1.1-3.5-1.1c-3.6,0-6.2,2.8-6.2,6.6c0,3.8,2.7,6.6,6.3,6.6c1.3,0,2.4-0.4,3.4-1.1
	v0.8h3.1V25.4H200.3z M197.1,35.4c-2,0-3.3-1.5-3.3-3.7c0-2.2,1.3-3.7,3.3-3.7c2,0,3.3,1.5,3.3,3.7
	C200.3,33.5,199.3,35.4,197.1,35.4z"/>
<linearGradient id="SVGID_1_" gradientUnits="userSpaceOnUse" x1="0.9986" y1="21.9169" x2="35.0093" y2="23.8297" gradientTransform="matrix(1 0 0 -1 0 42.8571)">
	<stop  offset="0" style="stop-color:#349A1B"/>
	<stop  offset="1" style="stop-color:#8EBD00"/>
</linearGradient>
<path class="st2" d="M15.3,40c-4-0.1-6.8,0-9.9-0.1c-0.8-0.1-1.5-0.3-2.3-0.6c-1.2-1.5,0-5.2,5.2-8.5c8.6,11.2,32-9,15.7-21.1
	c-10.8-8-17.8,4.9-21.8,3c-1.4-0.7-5.5-8.4,7-11.6C19.8-1.5,27.6,1.9,32,7.5c1.9,3.1,2.9,6.8,2.9,10.5C34.9,28.9,26.5,38,15.3,40z"
	/>
<linearGradient id="SVGID_2_" gradientUnits="userSpaceOnUse" x1="15.0714" y1="21.9473" x2="26.2586" y2="34.092" gradientTransform="matrix(1 0 0 -1 0 42.8571)">
	<stop  offset="0" style="stop-color:#349A1B"/>
	<stop  offset="1" style="stop-color:#8EBD00"/>
</linearGradient>
<path class="st3" d="M36.3,20.4C36.6,9,26.7-3.3,9.1,1.1C-3.5,4.3,0.6,12.1,2,12.8c4,1.9,11-11,21.8-3C40.2,21.9,18,40,8.2,30.8
	c-6,3.8-6.7,8.2-4.5,9.1c4,0.1,7.2,0.1,12.4,0.1C27.9,40.1,35.9,32,36.3,20.4z"/>
<linearGradient id="SVGID_3_" gradientUnits="userSpaceOnUse" x1="1.4273" y1="-0.6831" x2="19.3546" y2="28.1441" gradientTransform="matrix(1 0 0 -1 0 42.8571)">
	<stop  offset="0" style="stop-color:#8EBD00"/>
	<stop  offset="1" style="stop-color:#349A1B"/>
</linearGradient>
<path class="st4" d="M6.1,16.8c-6.8,5.7-4.6,20.1-4.6,20.1C1.7,38.7,2.9,40,4.7,40h11.5c-3.3-0.6-14.7-9.1-1.7-15.5
	c0,0,6.8-2.2,3.3-7.9C15.1,12.3,9.3,14.2,6.1,16.8z"/>
<linearGradient id="SVGID_4_" gradientUnits="userSpaceOnUse" x1="6.1431" y1="39.7243" x2="48.9389" y2="15.4444" gradientTransform="matrix(1 0 0 -1 0 42.8571)">
	<stop  offset="0" style="stop-color:#F89F17"/>
	<stop  offset="1" style="stop-color:#FCD548"/>
</linearGradient>
<path class="st5" d="M27.6,26.1c2.9-5,2.9-11.4-3.8-16.3C13,1.7,6.1,14.7,2,12.8c-1.4-0.7-5.5-8.4,7-11.6
	c11.4-2.9,19.5,1.1,23.8,7.5c0.1,1,0.3,2.1,0.3,3.2C33.1,17.4,31.1,22.3,27.6,26.1z"/>
<linearGradient id="SVGID_5_" gradientUnits="userSpaceOnUse" x1="2.9681" y1="38.7741" x2="37.9874" y2="27.3247" gradientTransform="matrix(1 0 0 -1 0 42.8571)">
	<stop  offset="0" style="stop-color:#F89F17"/>
	<stop  offset="1" style="stop-color:#FCD548"/>
</linearGradient>
<path class="st6" d="M23.9,9.8C13,1.7,6.1,14.7,2,12.8c-1.4-0.7-5.5-8.4,7-11.6c3.7-1,7-1.1,10-0.8c6.3,2.4,10.8,7.9,10.8,14.4
	c0,1.2-0.1,2.4-0.4,3.5C29,15.2,27.4,12.3,23.9,9.8z"/>
<linearGradient id="SVGID_6_" gradientUnits="userSpaceOnUse" x1="-9.6541" y1="32.7817" x2="25.3788" y2="34.9235" gradientTransform="matrix(1 0 0 -1 0 42.8571)">
	<stop  offset="0" style="stop-color:#F89F17"/>
	<stop  offset="1" style="stop-color:#FCD548"/>
</linearGradient>
<path class="st7" d="M28.1,14.4c-0.9-1.6-2.3-3.1-4.2-4.6C13,1.7,6.1,14.7,2,12.8C0.8,12.2-2.4,6.3,4.9,2.6c0.5,0,1,0,1.5,0
	C18,2.6,27.4,7.8,28.1,14.4z"/>
<linearGradient id="SVGID_7_" gradientUnits="userSpaceOnUse" x1="20.6566" y1="23.5982" x2="1.3479" y2="1.3133" gradientTransform="matrix(1 0 0 -1 0 42.8571)">
	<stop  offset="0" style="stop-color:#8EBD00"/>
	<stop  offset="1" style="stop-color:#349A1B"/>
</linearGradient>
<path class="st8" d="M14.4,24.6C1.5,31,12.8,39.4,16.1,40H4.7c-1.8,0-3-1.3-3.2-3.2c0,0-0.8-5.4,0.1-10.8c2.6-4.2,7.7-7.1,13.6-7.1
	c1.2,0,2.4,0.1,3.6,0.4C19.1,23,14.4,24.6,14.4,24.6z"/>
</svg>
